<?xml version="1.0" encoding="UTF-8"?>
<svg width="261px" height="261px" viewBox="0 0 261 261" version="1.1" xmlns="http://www.w3.org/2000/svg" xmlns:xlink="http://www.w3.org/1999/xlink">
    <title>Group</title>
    <g id="Page-1" stroke="none" stroke-width="1" fill="none" fill-rule="evenodd">
        <g id="Group">
            <rect id="Rectangle" stroke="#979797" fill="#D8D8D8" x="0.5" y="0.5" width="260" height="260" rx="130"></rect>
            <g id="icon" transform="translate(58.000000, 58.000000)" fill="#000000" fill-rule="nonzero">
                <path d="M47.7568369,7.91946284 L48.094764,8.25742192 C53.4452771,13.6084407 56.2050154,20.5929285 56.3176578,27.6337427 C56.4720894,62.4639069 84.6830372,90.6523754 119.510033,90.7757648 L119.84796,90.7757648 C126.606503,91.0010708 133.365046,93.648417 138.546595,98.7178032 L138.884523,99.0557623 C149.691247,110.008872 149.707142,127.60882 138.920219,138.581435 C128.133295,149.55405 110.537276,149.836861 99.4033683,139.216567 L99.0654411,138.878608 C93.5108685,133.331174 90.5293329,125.713243 90.8425474,117.868818 C89.8827182,84.4250089 63.1115259,57.4787115 29.6777348,56.3039383 L29.2271653,56.3039383 C21.5489809,56.6119848 14.0795402,53.7623375 8.5572885,48.4182263 L8.27568255,48.0802672 C-2.62560128,37.2081445 -2.77611871,19.5959397 7.93775541,8.53905449 L8.27568255,8.25742192 C19.0075453,-2.48469575 36.3226387,-2.78368965 47.4189097,7.58150375 L47.7568369,7.91946284 Z" id="Path"></path>
                <circle id="Oval" cx="28" cy="119" r="28"></circle>
                <circle id="Oval" cx="119" cy="28" r="28"></circle>
            </g>
        </g>
    </g>
</svg>