<svg width="2476" height="1143" viewBox="0 0 2476 1143" fill="none" xmlns="http://www.w3.org/2000/svg">
<path d="M793.5 480.5C793.5 453.167 790 433.5 783 421.5C776.333 409.167 763.667 403 745 403C738.333 403 731 403.5 723 404.5C715 405.5 709 406.333 705 407V618H644.5V365C656.167 361.667 671.333 358.5 690 355.5C709 352.5 729 351 750 351C768 351 782.667 353.333 794 358C805.667 362.667 815.333 368.833 823 376.5C826.667 373.833 831.333 371 837 368C842.667 365 849 362.333 856 360C863 357.333 870.333 355.167 878 353.5C886 351.833 894 351 902 351C922.333 351 939 354 952 360C965.333 365.667 975.667 373.833 983 384.5C990.667 394.833 995.833 407.5 998.5 422.5C1001.5 437.167 1003 453.333 1003 471V618H942.5V480.5C942.5 453.167 939.167 433.5 932.5 421.5C925.833 409.167 913 403 894 403C884.333 403 875.167 404.667 866.5 408C857.833 411 851.333 414 847 417C849.667 425.333 851.5 434.167 852.5 443.5C853.5 452.833 854 462.833 854 473.5V618H793.5V480.5ZM1052.62 487.5C1052.62 468.167 1055.62 450.167 1061.62 433.5C1067.62 416.5 1076.12 401.833 1087.12 389.5C1098.45 377.167 1112.12 367.5 1128.12 360.5C1144.12 353.5 1162.12 350 1182.12 350C1206.78 350 1230.12 354.5 1252.12 363.5L1239.12 413C1232.12 410 1224.12 407.5 1215.12 405.5C1206.45 403.5 1197.12 402.5 1187.12 402.5C1163.45 402.5 1145.45 410 1133.12 425C1120.78 439.667 1114.62 460.5 1114.62 487.5C1114.62 513.5 1120.45 534.167 1132.12 549.5C1143.78 564.5 1163.45 572 1191.12 572C1201.45 572 1211.62 571 1221.62 569C1231.62 567 1240.28 564.5 1247.62 561.5L1256.12 611.5C1249.45 614.833 1239.28 617.833 1225.62 620.5C1212.28 623.167 1198.45 624.5 1184.12 624.5C1161.78 624.5 1142.28 621.167 1125.62 614.5C1109.28 607.5 1095.62 598 1084.62 586C1073.95 573.667 1065.95 559.167 1060.62 542.5C1055.28 525.5 1052.62 507.167 1052.62 487.5ZM1466.46 488.5C1466.46 461.5 1460.29 440.5 1447.96 425.5C1435.96 410.5 1416.46 403 1389.46 403C1383.79 403 1377.79 403.333 1371.46 404C1365.46 404.333 1359.46 405.333 1353.46 407V556.5C1358.79 560.167 1365.79 563.667 1374.46 567C1383.46 570 1392.96 571.5 1402.96 571.5C1424.96 571.5 1440.96 564 1450.96 549C1461.29 534 1466.46 513.833 1466.46 488.5ZM1528.46 487.5C1528.46 507.5 1525.79 525.833 1520.46 542.5C1515.46 559.167 1508.12 573.5 1498.46 585.5C1488.79 597.5 1476.62 606.833 1461.96 613.5C1447.62 620.167 1431.29 623.5 1412.96 623.5C1400.62 623.5 1389.29 622 1378.96 619C1368.62 616 1360.12 612.667 1353.46 609V710.5H1292.96V365C1305.29 361.667 1320.46 358.5 1338.46 355.5C1356.46 352.5 1375.46 351 1395.46 351C1416.12 351 1434.62 354.167 1450.96 360.5C1467.29 366.833 1481.12 376 1492.46 388C1504.12 399.667 1512.96 414 1518.96 431C1525.29 447.667 1528.46 466.5 1528.46 487.5ZM1553.81 447.5H1688.31V503H1553.81V447.5ZM1943.02 610C1931.36 613 1916.19 616 1897.52 619C1878.86 622.333 1858.36 624 1836.02 624C1815.02 624 1797.36 621 1783.02 615C1769.02 609 1757.69 600.667 1749.02 590C1740.69 579.333 1734.69 566.667 1731.02 552C1727.36 537 1725.52 520.667 1725.52 503V356.5H1786.02V493.5C1786.02 521.5 1790.02 541.5 1798.02 553.5C1806.36 565.5 1820.69 571.5 1841.02 571.5C1848.36 571.5 1856.02 571.167 1864.02 570.5C1872.36 569.833 1878.52 569 1882.52 568V356.5H1943.02V610ZM2075.53 574.5C2091.53 574.5 2103.19 572.667 2110.53 569C2117.86 565 2121.53 558.333 2121.53 549C2121.53 540.333 2117.53 533.167 2109.53 527.5C2101.86 521.833 2089.03 515.667 2071.03 509C2060.03 505 2049.86 500.833 2040.53 496.5C2031.53 491.833 2023.69 486.5 2017.03 480.5C2010.36 474.5 2005.03 467.333 2001.03 459C1997.36 450.333 1995.53 439.833 1995.53 427.5C1995.53 403.5 2004.36 384.667 2022.03 371C2039.69 357 2063.69 350 2094.03 350C2109.36 350 2124.03 351.5 2138.03 354.5C2152.03 357.167 2162.53 359.833 2169.53 362.5L2158.53 411.5C2151.86 408.5 2143.36 405.833 2133.03 403.5C2122.69 400.833 2110.69 399.5 2097.03 399.5C2084.69 399.5 2074.69 401.667 2067.03 406C2059.36 410 2055.53 416.333 2055.53 425C2055.53 429.333 2056.19 433.167 2057.53 436.5C2059.19 439.833 2061.86 443 2065.53 446C2069.19 448.667 2074.03 451.5 2080.03 454.5C2086.03 457.167 2093.36 460 2102.03 463C2116.36 468.333 2128.53 473.667 2138.53 479C2148.53 484 2156.69 489.833 2163.03 496.5C2169.69 502.833 2174.53 510.167 2177.53 518.5C2180.53 526.833 2182.03 536.833 2182.03 548.5C2182.03 573.5 2172.69 592.5 2154.03 605.5C2135.69 618.167 2109.36 624.5 2075.03 624.5C2052.03 624.5 2033.53 622.5 2019.53 618.5C2005.53 614.833 1995.69 611.833 1990.03 609.5L2000.53 559C2009.53 562.667 2020.19 566.167 2032.53 569.5C2045.19 572.833 2059.53 574.5 2075.53 574.5ZM2214.04 488.5C2214.04 465.5 2217.38 445.333 2224.04 428C2231.04 410.667 2240.21 396.333 2251.54 385C2262.88 373.333 2275.88 364.667 2290.54 359C2305.21 353 2320.21 350 2335.54 350C2371.54 350 2399.54 361.167 2419.54 383.5C2439.88 405.833 2450.04 439.167 2450.04 483.5C2450.04 486.833 2449.88 490.667 2449.54 495C2449.54 499 2449.38 502.667 2449.04 506H2276.54C2278.21 527 2285.54 543.333 2298.54 555C2311.88 566.333 2331.04 572 2356.04 572C2370.71 572 2384.04 570.667 2396.04 568C2408.38 565.333 2418.04 562.5 2425.04 559.5L2433.04 609C2429.71 610.667 2425.04 612.5 2419.04 614.5C2413.38 616.167 2406.71 617.667 2399.04 619C2391.71 620.667 2383.71 622 2375.04 623C2366.38 624 2357.54 624.5 2348.54 624.5C2325.54 624.5 2305.54 621.167 2288.54 614.5C2271.54 607.5 2257.54 598 2246.54 586C2235.54 573.667 2227.38 559.333 2222.04 543C2216.71 526.333 2214.04 508.167 2214.04 488.5ZM2389.54 461.5C2389.54 453.167 2388.38 445.333 2386.04 438C2383.71 430.333 2380.21 423.833 2375.54 418.5C2371.21 412.833 2365.71 408.5 2359.04 405.5C2352.71 402.167 2345.04 400.5 2336.04 400.5C2326.71 400.5 2318.54 402.333 2311.54 406C2304.54 409.333 2298.54 413.833 2293.54 419.5C2288.88 425.167 2285.21 431.667 2282.54 439C2279.88 446.333 2278.04 453.833 2277.04 461.5H2389.54Z" fill="black"/>
<g clip-path="url(#clip0_625_40)">
<path d="M101.695 235C157.859 235 203.389 280.702 203.39 337.079C203.39 361.557 202.073 387.071 212.226 409.344L219.814 425.989C233.838 456.756 258.492 481.431 289.248 495.482L303.509 501.996C326.537 512.516 352.987 510.841 378.305 510.841C434.47 510.841 480 556.544 480 612.921C480 669.297 434.47 715 378.305 715C322.141 715 276.611 669.297 276.61 612.921C276.61 589.218 277.672 564.551 267.834 542.986L259.76 525.284C245.708 494.478 221.002 469.782 190.19 455.742L172.955 447.888C150.989 437.878 125.834 439.159 101.695 439.159C45.5304 439.159 0 393.456 0 337.079C0.000190044 280.702 45.5304 235 101.695 235Z" fill="black"/>
<path d="M96.4085 715.001C149.653 715.001 192.817 671.837 192.817 618.592C192.817 565.347 149.653 522.184 96.4085 522.184C43.1635 522.184 0 565.347 0 618.592C0 671.837 43.1635 715.001 96.4085 715.001Z" fill="black"/>
<path d="M480 331.408C480 384.653 436.836 427.817 383.592 427.817C330.347 427.817 287.184 384.653 287.184 331.408C287.184 278.163 330.347 235 383.592 235C436.836 235 480 278.163 480 331.408Z" fill="black"/>
</g>
<path d="M696.612 875V813.909H737.061V824.558H709.529V839.115H734.377V849.764H709.529V875H696.612ZM772.021 855.491V829.182H784.729V875H772.529V866.678H772.051C771.017 869.362 769.297 871.52 766.891 873.151C764.504 874.781 761.591 875.597 758.151 875.597C755.088 875.597 752.394 874.901 750.067 873.509C747.74 872.116 745.921 870.138 744.608 867.572C743.316 865.007 742.659 861.935 742.639 858.355V829.182H755.347V856.088C755.367 858.793 756.093 860.93 757.524 862.501C758.956 864.072 760.875 864.858 763.281 864.858C764.813 864.858 766.244 864.51 767.577 863.814C768.909 863.098 769.983 862.044 770.798 860.652C771.634 859.26 772.041 857.54 772.021 855.491ZM807.601 813.909V875H794.893V813.909H807.601ZM830.487 813.909V875H817.78V813.909H830.487ZM893.487 831.479C893.249 829.072 892.225 827.203 890.415 825.871C888.605 824.538 886.149 823.872 883.047 823.872C880.939 823.872 879.159 824.17 877.708 824.767C876.256 825.344 875.142 826.149 874.367 827.183C873.611 828.217 873.233 829.391 873.233 830.703C873.193 831.797 873.422 832.751 873.919 833.567C874.436 834.382 875.142 835.088 876.037 835.685C876.932 836.261 877.966 836.768 879.139 837.206C880.313 837.624 881.566 837.982 882.898 838.28L888.387 839.592C891.051 840.189 893.497 840.984 895.725 841.979C897.952 842.973 899.881 844.196 901.512 845.648C903.142 847.099 904.405 848.81 905.3 850.778C906.215 852.747 906.682 855.004 906.702 857.55C906.682 861.288 905.727 864.53 903.838 867.274C901.969 869.999 899.264 872.116 895.725 873.628C892.205 875.119 887.959 875.865 882.987 875.865C878.056 875.865 873.76 875.109 870.101 873.598C866.462 872.087 863.618 869.849 861.57 866.886C859.541 863.903 858.477 860.214 858.378 855.82H870.877C871.016 857.868 871.602 859.578 872.637 860.95C873.691 862.303 875.093 863.327 876.843 864.023C878.612 864.699 880.611 865.037 882.838 865.037C885.026 865.037 886.925 864.719 888.536 864.082C890.166 863.446 891.429 862.561 892.324 861.428C893.219 860.294 893.666 858.991 893.666 857.52C893.666 856.148 893.259 854.994 892.443 854.06C891.648 853.125 890.475 852.33 888.923 851.673C887.392 851.017 885.513 850.42 883.286 849.884L876.634 848.213C871.483 846.96 867.416 845.001 864.433 842.337C861.45 839.672 859.969 836.082 859.989 831.568C859.969 827.869 860.953 824.638 862.942 821.874C864.95 819.109 867.705 816.952 871.205 815.401C874.705 813.849 878.682 813.074 883.137 813.074C887.671 813.074 891.628 813.849 895.009 815.401C898.409 816.952 901.054 819.109 902.943 821.874C904.833 824.638 905.807 827.839 905.867 831.479H893.487ZM939.522 829.182V838.727H911.93V829.182H939.522ZM918.194 818.205H930.901V860.92C930.901 862.094 931.08 863.009 931.438 863.665C931.796 864.301 932.293 864.749 932.93 865.007C933.586 865.266 934.341 865.395 935.197 865.395C935.793 865.395 936.39 865.345 936.986 865.246C937.583 865.126 938.04 865.037 938.358 864.977L940.357 874.433C939.721 874.632 938.826 874.861 937.672 875.119C936.519 875.398 935.117 875.567 933.466 875.626C930.404 875.746 927.719 875.338 925.412 874.403C923.126 873.469 921.346 872.017 920.073 870.048C918.8 868.08 918.174 865.594 918.194 862.591V818.205ZM960.865 875.865C957.942 875.865 955.336 875.358 953.05 874.344C950.763 873.31 948.953 871.788 947.621 869.78C946.308 867.751 945.652 865.226 945.652 862.203C945.652 859.658 946.119 857.52 947.054 855.79C947.988 854.06 949.261 852.668 950.872 851.614C952.483 850.56 954.312 849.764 956.361 849.227C958.429 848.69 960.596 848.312 962.863 848.094C965.528 847.815 967.676 847.557 969.307 847.318C970.937 847.06 972.121 846.682 972.856 846.185C973.592 845.687 973.96 844.952 973.96 843.977V843.798C973.96 841.909 973.363 840.447 972.17 839.413C970.997 838.379 969.327 837.862 967.159 837.862C964.872 837.862 963.052 838.369 961.7 839.384C960.348 840.378 959.453 841.631 959.015 843.142L947.263 842.188C947.859 839.403 949.032 836.997 950.782 834.969C952.532 832.92 954.79 831.349 957.554 830.256C960.338 829.142 963.559 828.585 967.219 828.585C969.764 828.585 972.2 828.884 974.527 829.48C976.873 830.077 978.952 831.001 980.761 832.254C982.591 833.507 984.032 835.118 985.086 837.087C986.14 839.036 986.667 841.372 986.667 844.097V875H974.616V868.646H974.258C973.523 870.078 972.538 871.341 971.305 872.435C970.072 873.509 968.591 874.354 966.861 874.97C965.131 875.567 963.132 875.865 960.865 875.865ZM964.504 867.095C966.373 867.095 968.024 866.727 969.456 865.991C970.888 865.236 972.011 864.222 972.827 862.949C973.642 861.676 974.05 860.234 974.05 858.624V853.761C973.652 854.02 973.105 854.259 972.409 854.477C971.733 854.676 970.967 854.865 970.112 855.044C969.257 855.203 968.402 855.352 967.547 855.491C966.692 855.611 965.916 855.72 965.22 855.82C963.729 856.038 962.426 856.386 961.312 856.864C960.199 857.341 959.334 857.987 958.717 858.803C958.101 859.598 957.792 860.592 957.792 861.786C957.792 863.516 958.419 864.838 959.672 865.753C960.944 866.648 962.555 867.095 964.504 867.095ZM1017.23 875.895C1012.53 875.895 1008.5 874.901 1005.12 872.912C1001.76 870.903 999.171 868.119 997.361 864.56C995.572 861 994.677 856.903 994.677 852.27C994.677 847.577 995.581 843.46 997.391 839.92C999.221 836.361 1001.82 833.587 1005.18 831.598C1008.54 829.589 1012.53 828.585 1017.17 828.585C1021.17 828.585 1024.67 829.311 1027.67 830.763C1030.67 832.214 1033.05 834.253 1034.8 836.878C1036.55 839.503 1037.51 842.585 1037.69 846.125H1025.7C1025.36 843.838 1024.47 841.999 1023.01 840.607C1021.58 839.195 1019.7 838.489 1017.38 838.489C1015.41 838.489 1013.69 839.026 1012.22 840.099C1010.76 841.153 1009.63 842.695 1008.82 844.723C1008 846.751 1007.59 849.207 1007.59 852.091C1007.59 855.014 1007.99 857.5 1008.79 859.548C1009.6 861.597 1010.74 863.158 1012.22 864.232C1013.69 865.305 1015.41 865.842 1017.38 865.842C1018.83 865.842 1020.13 865.544 1021.28 864.947C1022.46 864.351 1023.42 863.486 1024.18 862.352C1024.95 861.199 1025.46 859.817 1025.7 858.206H1037.69C1037.49 861.706 1036.54 864.788 1034.83 867.453C1033.14 870.098 1030.8 872.166 1027.82 873.658C1024.83 875.149 1021.3 875.895 1017.23 875.895ZM1057.34 861.815L1057.37 846.572H1059.22L1073.9 829.182H1088.48L1068.77 852.21H1065.75L1057.34 861.815ZM1045.83 875V813.909H1058.53V875H1045.83ZM1074.46 875L1060.98 855.044L1069.45 846.065L1089.35 875H1074.46ZM1114.4 813.909H1130.33L1147.15 854.955H1147.87L1164.69 813.909H1180.62V875H1168.09V835.237H1167.58L1151.77 874.702H1143.24L1127.43 835.088H1126.93V875H1114.4V813.909ZM1245.16 835.297H1232.1C1231.86 833.607 1231.37 832.105 1230.64 830.793C1229.9 829.46 1228.96 828.327 1227.8 827.392C1226.65 826.457 1225.32 825.741 1223.8 825.244C1222.31 824.747 1220.69 824.499 1218.94 824.499C1215.78 824.499 1213.03 825.284 1210.68 826.855C1208.33 828.406 1206.51 830.673 1205.22 833.656C1203.93 836.619 1203.28 840.219 1203.28 844.455C1203.28 848.81 1203.93 852.469 1205.22 855.432C1206.53 858.395 1208.36 860.632 1210.71 862.143C1213.06 863.655 1215.77 864.411 1218.85 864.411C1220.58 864.411 1222.18 864.182 1223.66 863.724C1225.15 863.267 1226.47 862.601 1227.62 861.726C1228.78 860.831 1229.73 859.747 1230.49 858.474C1231.26 857.202 1231.8 855.75 1232.1 854.119L1245.16 854.179C1244.82 856.983 1243.98 859.688 1242.63 862.293C1241.29 864.878 1239.5 867.195 1237.23 869.243C1234.98 871.271 1232.3 872.882 1229.17 874.075C1226.07 875.249 1222.56 875.835 1218.64 875.835C1213.2 875.835 1208.32 874.602 1204.03 872.136C1199.75 869.67 1196.37 866.101 1193.89 861.428C1191.42 856.754 1190.19 851.097 1190.19 844.455C1190.19 837.793 1191.44 832.125 1193.95 827.452C1196.45 822.778 1199.85 819.219 1204.15 816.773C1208.44 814.307 1213.28 813.074 1218.64 813.074C1222.18 813.074 1225.47 813.571 1228.49 814.565C1231.53 815.56 1234.23 817.011 1236.57 818.92C1238.92 820.81 1240.83 823.126 1242.3 825.871C1243.79 828.615 1244.75 831.757 1245.16 835.297ZM1254.42 875V813.909H1278.53C1283.16 813.909 1287.11 814.794 1290.37 816.564C1293.63 818.314 1296.12 820.75 1297.83 823.872C1299.56 826.974 1300.42 830.554 1300.42 834.611C1300.42 838.668 1299.55 842.247 1297.8 845.349C1296.05 848.452 1293.51 850.868 1290.19 852.598C1286.89 854.328 1282.89 855.193 1278.2 855.193H1262.84V844.842H1276.11C1278.6 844.842 1280.65 844.415 1282.26 843.56C1283.89 842.685 1285.1 841.482 1285.9 839.95C1286.71 838.399 1287.12 836.619 1287.12 834.611C1287.12 832.582 1286.71 830.812 1285.9 829.301C1285.1 827.77 1283.89 826.587 1282.26 825.751C1280.63 824.896 1278.56 824.469 1276.05 824.469H1267.34V875H1254.42ZM1328.25 875V813.909H1368.7V824.558H1341.17V839.115H1366.02V849.764H1341.17V875H1328.25ZM1376.41 875V829.182H1388.73V837.176H1389.21C1390.04 834.332 1391.45 832.185 1393.42 830.733C1395.38 829.261 1397.65 828.526 1400.22 828.526C1400.85 828.526 1401.54 828.565 1402.28 828.645C1403.01 828.724 1403.66 828.834 1404.21 828.973V840.249C1403.62 840.07 1402.79 839.911 1401.74 839.771C1400.68 839.632 1399.72 839.562 1398.84 839.562C1396.98 839.562 1395.3 839.97 1393.83 840.786C1392.38 841.581 1391.23 842.695 1390.37 844.126C1389.54 845.558 1389.12 847.209 1389.12 849.078V875H1376.41ZM1422.54 875.865C1419.61 875.865 1417.01 875.358 1414.72 874.344C1412.43 873.31 1410.62 871.788 1409.29 869.78C1407.98 867.751 1407.32 865.226 1407.32 862.203C1407.32 859.658 1407.79 857.52 1408.73 855.79C1409.66 854.06 1410.93 852.668 1412.54 851.614C1414.15 850.56 1415.98 849.764 1418.03 849.227C1420.1 848.69 1422.27 848.312 1424.54 848.094C1427.2 847.815 1429.35 847.557 1430.98 847.318C1432.61 847.06 1433.79 846.682 1434.53 846.185C1435.26 845.687 1435.63 844.952 1435.63 843.977V843.798C1435.63 841.909 1435.04 840.447 1433.84 839.413C1432.67 838.379 1431 837.862 1428.83 837.862C1426.54 837.862 1424.72 838.369 1423.37 839.384C1422.02 840.378 1421.12 841.631 1420.69 843.142L1408.93 842.188C1409.53 839.403 1410.7 836.997 1412.45 834.969C1414.2 832.92 1416.46 831.349 1419.23 830.256C1422.01 829.142 1425.23 828.585 1428.89 828.585C1431.44 828.585 1433.87 828.884 1436.2 829.48C1438.55 830.077 1440.62 831.001 1442.43 832.254C1444.26 833.507 1445.7 835.118 1446.76 837.087C1447.81 839.036 1448.34 841.372 1448.34 844.097V875H1436.29V868.646H1435.93C1435.19 870.078 1434.21 871.341 1432.98 872.435C1431.74 873.509 1430.26 874.354 1428.53 874.97C1426.8 875.567 1424.8 875.865 1422.54 875.865ZM1426.18 867.095C1428.05 867.095 1429.7 866.727 1431.13 865.991C1432.56 865.236 1433.68 864.222 1434.5 862.949C1435.31 861.676 1435.72 860.234 1435.72 858.624V853.761C1435.32 854.02 1434.78 854.259 1434.08 854.477C1433.4 854.676 1432.64 854.865 1431.78 855.044C1430.93 855.203 1430.07 855.352 1429.22 855.491C1428.36 855.611 1427.59 855.72 1426.89 855.82C1425.4 856.038 1424.1 856.386 1422.98 856.864C1421.87 857.341 1421.01 857.987 1420.39 858.803C1419.77 859.598 1419.46 860.592 1419.46 861.786C1419.46 863.516 1420.09 864.838 1421.34 865.753C1422.62 866.648 1424.23 867.095 1426.18 867.095ZM1458.2 875V829.182H1470.31V837.266H1470.85C1471.8 834.581 1473.39 832.463 1475.62 830.912C1477.85 829.361 1480.51 828.585 1483.61 828.585C1486.75 828.585 1489.43 829.371 1491.64 830.942C1493.84 832.493 1495.32 834.601 1496.05 837.266H1496.53C1497.46 834.641 1499.15 832.543 1501.6 830.972C1504.07 829.381 1506.98 828.585 1510.34 828.585C1514.62 828.585 1518.09 829.947 1520.75 832.672C1523.44 835.376 1524.78 839.214 1524.78 844.186V875H1512.1V846.692C1512.1 844.146 1511.42 842.237 1510.07 840.964C1508.72 839.692 1507.03 839.055 1505 839.055C1502.69 839.055 1500.89 839.791 1499.6 841.263C1498.31 842.714 1497.66 844.634 1497.66 847.02V875H1485.34V846.423C1485.34 844.176 1484.7 842.386 1483.4 841.054C1482.13 839.722 1480.45 839.055 1478.36 839.055C1476.95 839.055 1475.68 839.413 1474.54 840.129C1473.43 840.825 1472.55 841.81 1471.89 843.082C1471.23 844.335 1470.91 845.807 1470.91 847.497V875H1458.2ZM1555.7 875.895C1550.98 875.895 1546.93 874.94 1543.53 873.031C1540.14 871.102 1537.54 868.378 1535.71 864.858C1533.88 861.318 1532.97 857.132 1532.97 852.3C1532.97 847.587 1533.88 843.45 1535.71 839.891C1537.54 836.331 1540.11 833.557 1543.44 831.568C1546.78 829.58 1550.69 828.585 1555.19 828.585C1558.21 828.585 1561.03 829.072 1563.63 830.047C1566.26 831.001 1568.54 832.443 1570.49 834.372C1572.46 836.301 1573.99 838.727 1575.09 841.651C1576.18 844.554 1576.73 847.955 1576.73 851.852V855.342H1538.04V847.467H1564.76C1564.76 845.638 1564.37 844.017 1563.57 842.605C1562.78 841.193 1561.67 840.089 1560.26 839.294C1558.87 838.479 1557.25 838.071 1555.4 838.071C1553.47 838.071 1551.76 838.518 1550.27 839.413C1548.8 840.288 1547.64 841.472 1546.81 842.963C1545.97 844.435 1545.54 846.075 1545.52 847.885V855.372C1545.52 857.639 1545.94 859.598 1546.78 861.249C1547.63 862.899 1548.84 864.172 1550.39 865.067C1551.94 865.962 1553.78 866.409 1555.9 866.409C1557.32 866.409 1558.61 866.21 1559.78 865.812C1560.96 865.415 1561.96 864.818 1562.8 864.023C1563.63 863.227 1564.27 862.253 1564.7 861.099L1576.46 861.875C1575.86 864.699 1574.64 867.165 1572.79 869.273C1570.96 871.361 1568.59 872.991 1565.69 874.165C1562.81 875.318 1559.47 875.895 1555.7 875.895ZM1593.73 875L1581.26 829.182H1594.12L1601.22 859.966H1601.63L1609.03 829.182H1621.65L1629.17 859.787H1629.55L1636.53 829.182H1649.36L1636.92 875H1623.47L1615.59 846.185H1615.03L1607.15 875H1593.73ZM1675.69 875.895C1671.06 875.895 1667.05 874.911 1663.67 872.942C1660.31 870.953 1657.72 868.189 1655.89 864.649C1654.06 861.089 1653.14 856.963 1653.14 852.27C1653.14 847.537 1654.06 843.401 1655.89 839.861C1657.72 836.301 1660.31 833.537 1663.67 831.568C1667.05 829.58 1671.06 828.585 1675.69 828.585C1680.33 828.585 1684.32 829.58 1687.68 831.568C1691.06 833.537 1693.67 836.301 1695.5 839.861C1697.33 843.401 1698.24 847.537 1698.24 852.27C1698.24 856.963 1697.33 861.089 1695.5 864.649C1693.67 868.189 1691.06 870.953 1687.68 872.942C1684.32 874.911 1680.33 875.895 1675.69 875.895ZM1675.75 866.051C1677.86 866.051 1679.62 865.455 1681.03 864.261C1682.44 863.048 1683.51 861.398 1684.22 859.31C1684.96 857.222 1685.33 854.845 1685.33 852.18C1685.33 849.516 1684.96 847.139 1684.22 845.051C1683.51 842.963 1682.44 841.312 1681.03 840.099C1679.62 838.886 1677.86 838.28 1675.75 838.28C1673.62 838.28 1671.83 838.886 1670.38 840.099C1668.95 841.312 1667.87 842.963 1667.13 845.051C1666.42 847.139 1666.06 849.516 1666.06 852.18C1666.06 854.845 1666.42 857.222 1667.13 859.31C1667.87 861.398 1668.95 863.048 1670.38 864.261C1671.83 865.455 1673.62 866.051 1675.75 866.051ZM1706.51 875V829.182H1718.83V837.176H1719.3C1720.14 834.332 1721.54 832.185 1723.51 830.733C1725.48 829.261 1727.75 828.526 1730.31 828.526C1730.95 828.526 1731.63 828.565 1732.37 828.645C1733.1 828.724 1733.75 828.834 1734.31 828.973V840.249C1733.71 840.07 1732.89 839.911 1731.83 839.771C1730.78 839.632 1729.81 839.562 1728.94 839.562C1727.07 839.562 1725.4 839.97 1723.93 840.786C1722.48 841.581 1721.32 842.695 1720.47 844.126C1719.63 845.558 1719.21 847.209 1719.21 849.078V875H1706.51ZM1752.39 861.815L1752.42 846.572H1754.27L1768.95 829.182H1783.53L1763.82 852.21H1760.8L1752.39 861.815ZM1740.88 875V813.909H1753.59V875H1740.88ZM1769.51 875L1756.03 855.044L1764.5 846.065L1784.4 875H1769.51Z" fill="black"/>
<defs>
<clipPath id="clip0_625_40">
<rect width="480" height="480" fill="white" transform="translate(0 235)"/>
</clipPath>
</defs>
</svg>
