<svg width="4717" height="1333" viewBox="0 0 4717 1333" fill="none" xmlns="http://www.w3.org/2000/svg">
<rect width="4717" height="1333" fill="white"/>
<path d="M1914.5 575.5C1914.5 548.167 1911 528.5 1904 516.5C1897.33 504.167 1884.67 498 1866 498C1859.33 498 1852 498.5 1844 499.5C1836 500.5 1830 501.333 1826 502V713H1765.5V460C1777.17 456.667 1792.33 453.5 1811 450.5C1830 447.5 1850 446 1871 446C1889 446 1903.67 448.333 1915 453C1926.67 457.667 1936.33 463.833 1944 471.5C1947.67 468.833 1952.33 466 1958 463C1963.67 460 1970 457.333 1977 455C1984 452.333 1991.33 450.167 1999 448.5C2007 446.833 2015 446 2023 446C2043.33 446 2060 449 2073 455C2086.33 460.667 2096.67 468.833 2104 479.5C2111.67 489.833 2116.83 502.5 2119.5 517.5C2122.5 532.167 2124 548.333 2124 566V713H2063.5V575.5C2063.5 548.167 2060.17 528.5 2053.5 516.5C2046.83 504.167 2034 498 2015 498C2005.33 498 1996.17 499.667 1987.5 503C1978.83 506 1972.33 509 1968 512C1970.67 520.333 1972.5 529.167 1973.5 538.5C1974.5 547.833 1975 557.833 1975 568.5V713H1914.5V575.5ZM2173.62 582.5C2173.62 563.167 2176.62 545.167 2182.62 528.5C2188.62 511.5 2197.12 496.833 2208.12 484.5C2219.45 472.167 2233.12 462.5 2249.12 455.5C2265.12 448.5 2283.12 445 2303.12 445C2327.78 445 2351.12 449.5 2373.12 458.5L2360.12 508C2353.12 505 2345.12 502.5 2336.12 500.5C2327.45 498.5 2318.12 497.5 2308.12 497.5C2284.45 497.5 2266.45 505 2254.12 520C2241.78 534.667 2235.62 555.5 2235.62 582.5C2235.62 608.5 2241.45 629.167 2253.12 644.5C2264.78 659.5 2284.45 667 2312.12 667C2322.45 667 2332.62 666 2342.62 664C2352.62 662 2361.28 659.5 2368.62 656.5L2377.12 706.5C2370.45 709.833 2360.28 712.833 2346.62 715.5C2333.28 718.167 2319.45 719.5 2305.12 719.5C2282.78 719.5 2263.28 716.167 2246.62 709.5C2230.28 702.5 2216.62 693 2205.62 681C2194.95 668.667 2186.95 654.167 2181.62 637.5C2176.28 620.5 2173.62 602.167 2173.62 582.5ZM2587.46 583.5C2587.46 556.5 2581.29 535.5 2568.96 520.5C2556.96 505.5 2537.46 498 2510.46 498C2504.79 498 2498.79 498.333 2492.46 499C2486.46 499.333 2480.46 500.333 2474.46 502V651.5C2479.79 655.167 2486.79 658.667 2495.46 662C2504.46 665 2513.96 666.5 2523.96 666.5C2545.96 666.5 2561.96 659 2571.96 644C2582.29 629 2587.46 608.833 2587.46 583.5ZM2649.46 582.5C2649.46 602.5 2646.79 620.833 2641.46 637.5C2636.46 654.167 2629.12 668.5 2619.46 680.5C2609.79 692.5 2597.62 701.833 2582.96 708.5C2568.62 715.167 2552.29 718.5 2533.96 718.5C2521.62 718.5 2510.29 717 2499.96 714C2489.62 711 2481.12 707.667 2474.46 704V805.5H2413.96V460C2426.29 456.667 2441.46 453.5 2459.46 450.5C2477.46 447.5 2496.46 446 2516.46 446C2537.12 446 2555.62 449.167 2571.96 455.5C2588.29 461.833 2602.12 471 2613.46 483C2625.12 494.667 2633.96 509 2639.96 526C2646.29 542.667 2649.46 561.5 2649.46 582.5ZM2674.81 542.5H2809.31V598H2674.81V542.5ZM3064.02 705C3052.36 708 3037.19 711 3018.52 714C2999.86 717.333 2979.36 719 2957.02 719C2936.02 719 2918.36 716 2904.02 710C2890.02 704 2878.69 695.667 2870.02 685C2861.69 674.333 2855.69 661.667 2852.02 647C2848.36 632 2846.52 615.667 2846.52 598V451.5H2907.02V588.5C2907.02 616.5 2911.02 636.5 2919.02 648.5C2927.36 660.5 2941.69 666.5 2962.02 666.5C2969.36 666.5 2977.02 666.167 2985.02 665.5C2993.36 664.833 2999.52 664 3003.52 663V451.5H3064.02V705ZM3196.53 669.5C3212.53 669.5 3224.19 667.667 3231.53 664C3238.86 660 3242.53 653.333 3242.53 644C3242.53 635.333 3238.53 628.167 3230.53 622.5C3222.86 616.833 3210.03 610.667 3192.03 604C3181.03 600 3170.86 595.833 3161.53 591.5C3152.53 586.833 3144.69 581.5 3138.03 575.5C3131.36 569.5 3126.03 562.333 3122.03 554C3118.36 545.333 3116.53 534.833 3116.53 522.5C3116.53 498.5 3125.36 479.667 3143.03 466C3160.69 452 3184.69 445 3215.03 445C3230.36 445 3245.03 446.5 3259.03 449.5C3273.03 452.167 3283.53 454.833 3290.53 457.5L3279.53 506.5C3272.86 503.5 3264.36 500.833 3254.03 498.5C3243.69 495.833 3231.69 494.5 3218.03 494.5C3205.69 494.5 3195.69 496.667 3188.03 501C3180.36 505 3176.53 511.333 3176.53 520C3176.53 524.333 3177.19 528.167 3178.53 531.5C3180.19 534.833 3182.86 538 3186.53 541C3190.19 543.667 3195.03 546.5 3201.03 549.5C3207.03 552.167 3214.36 555 3223.03 558C3237.36 563.333 3249.53 568.667 3259.53 574C3269.53 579 3277.69 584.833 3284.03 591.5C3290.69 597.833 3295.53 605.167 3298.53 613.5C3301.53 621.833 3303.03 631.833 3303.03 643.5C3303.03 668.5 3293.69 687.5 3275.03 700.5C3256.69 713.167 3230.36 719.5 3196.03 719.5C3173.03 719.5 3154.53 717.5 3140.53 713.5C3126.53 709.833 3116.69 706.833 3111.03 704.5L3121.53 654C3130.53 657.667 3141.19 661.167 3153.53 664.5C3166.19 667.833 3180.53 669.5 3196.53 669.5ZM3335.04 583.5C3335.04 560.5 3338.38 540.333 3345.04 523C3352.04 505.667 3361.21 491.333 3372.54 480C3383.88 468.333 3396.88 459.667 3411.54 454C3426.21 448 3441.21 445 3456.54 445C3492.54 445 3520.54 456.167 3540.54 478.5C3560.88 500.833 3571.04 534.167 3571.04 578.5C3571.04 581.833 3570.88 585.667 3570.54 590C3570.54 594 3570.38 597.667 3570.04 601H3397.54C3399.21 622 3406.54 638.333 3419.54 650C3432.88 661.333 3452.04 667 3477.04 667C3491.71 667 3505.04 665.667 3517.04 663C3529.38 660.333 3539.04 657.5 3546.04 654.5L3554.04 704C3550.71 705.667 3546.04 707.5 3540.04 709.5C3534.38 711.167 3527.71 712.667 3520.04 714C3512.71 715.667 3504.71 717 3496.04 718C3487.38 719 3478.54 719.5 3469.54 719.5C3446.54 719.5 3426.54 716.167 3409.54 709.5C3392.54 702.5 3378.54 693 3367.54 681C3356.54 668.667 3348.38 654.333 3343.04 638C3337.71 621.333 3335.04 603.167 3335.04 583.5ZM3510.54 556.5C3510.54 548.167 3509.38 540.333 3507.04 533C3504.71 525.333 3501.21 518.833 3496.54 513.5C3492.21 507.833 3486.71 503.5 3480.04 500.5C3473.71 497.167 3466.04 495.5 3457.04 495.5C3447.71 495.5 3439.54 497.333 3432.54 501C3425.54 504.333 3419.54 508.833 3414.54 514.5C3409.88 520.167 3406.21 526.667 3403.54 534C3400.88 541.333 3399.04 548.833 3398.04 556.5H3510.54Z" fill="black"/>
<g clip-path="url(#clip0_620_2)">
<path d="M1222.7 330C1278.86 330 1324.39 375.702 1324.39 432.079C1324.39 456.557 1323.07 482.071 1333.23 504.344L1340.81 520.989C1354.84 551.756 1379.49 576.431 1410.25 590.482L1424.51 596.996C1447.54 607.516 1473.99 605.841 1499.3 605.841C1555.47 605.841 1601 651.544 1601 707.921C1601 764.297 1555.47 810 1499.3 810C1443.14 810 1397.61 764.297 1397.61 707.921C1397.61 684.218 1398.67 659.551 1388.83 637.986L1380.76 620.284C1366.71 589.478 1342 564.782 1311.19 550.742L1293.96 542.888C1271.99 532.878 1246.83 534.159 1222.7 534.159C1166.53 534.159 1121 488.456 1121 432.079C1121 375.702 1166.53 330 1222.7 330Z" fill="black"/>
<path d="M1217.41 810.001C1270.65 810.001 1313.82 766.837 1313.82 713.592C1313.82 660.347 1270.65 617.184 1217.41 617.184C1164.16 617.184 1121 660.347 1121 713.592C1121 766.837 1164.16 810.001 1217.41 810.001Z" fill="black"/>
<path d="M1601 426.408C1601 479.653 1557.84 522.817 1504.59 522.817C1451.35 522.817 1408.18 479.653 1408.18 426.408C1408.18 373.163 1451.35 330 1504.59 330C1557.84 330 1601 373.163 1601 426.408Z" fill="black"/>
</g>
<path d="M1817.61 970V908.909H1858.06V919.558H1830.53V934.115H1855.38V944.764H1830.53V970H1817.61ZM1893.02 950.491V924.182H1905.73V970H1893.53V961.678H1893.05C1892.02 964.362 1890.3 966.52 1887.89 968.151C1885.5 969.781 1882.59 970.597 1879.15 970.597C1876.09 970.597 1873.39 969.901 1871.07 968.509C1868.74 967.116 1866.92 965.138 1865.61 962.572C1864.32 960.007 1863.66 956.935 1863.64 953.355V924.182H1876.35V951.088C1876.37 953.793 1877.09 955.93 1878.52 957.501C1879.96 959.072 1881.88 959.858 1884.28 959.858C1885.81 959.858 1887.24 959.51 1888.58 958.814C1889.91 958.098 1890.98 957.044 1891.8 955.652C1892.63 954.26 1893.04 952.54 1893.02 950.491ZM1928.6 908.909V970H1915.89V908.909H1928.6ZM1951.49 908.909V970H1938.78V908.909H1951.49ZM2014.49 926.479C2014.25 924.072 2013.22 922.203 2011.41 920.871C2009.61 919.538 2007.15 918.872 2004.05 918.872C2001.94 918.872 2000.16 919.17 1998.71 919.767C1997.26 920.344 1996.14 921.149 1995.37 922.183C1994.61 923.217 1994.23 924.391 1994.23 925.703C1994.19 926.797 1994.42 927.751 1994.92 928.567C1995.44 929.382 1996.14 930.088 1997.04 930.685C1997.93 931.261 1998.97 931.768 2000.14 932.206C2001.31 932.624 2002.57 932.982 2003.9 933.28L2009.39 934.592C2012.05 935.189 2014.5 935.984 2016.72 936.979C2018.95 937.973 2020.88 939.196 2022.51 940.648C2024.14 942.099 2025.41 943.81 2026.3 945.778C2027.21 947.747 2027.68 950.004 2027.7 952.55C2027.68 956.288 2026.73 959.53 2024.84 962.274C2022.97 964.999 2020.26 967.116 2016.72 968.628C2013.2 970.119 2008.96 970.865 2003.99 970.865C1999.06 970.865 1994.76 970.109 1991.1 968.598C1987.46 967.087 1984.62 964.849 1982.57 961.886C1980.54 958.903 1979.48 955.214 1979.38 950.82H1991.88C1992.02 952.868 1992.6 954.578 1993.64 955.95C1994.69 957.303 1996.09 958.327 1997.84 959.023C1999.61 959.699 2001.61 960.037 2003.84 960.037C2006.03 960.037 2007.92 959.719 2009.54 959.082C2011.17 958.446 2012.43 957.561 2013.32 956.428C2014.22 955.294 2014.67 953.991 2014.67 952.52C2014.67 951.148 2014.26 949.994 2013.44 949.06C2012.65 948.125 2011.47 947.33 2009.92 946.673C2008.39 946.017 2006.51 945.42 2004.29 944.884L1997.63 943.213C1992.48 941.96 1988.42 940.001 1985.43 937.337C1982.45 934.672 1980.97 931.082 1980.99 926.568C1980.97 922.869 1981.95 919.638 1983.94 916.874C1985.95 914.109 1988.7 911.952 1992.2 910.401C1995.7 908.849 1999.68 908.074 2004.14 908.074C2008.67 908.074 2012.63 908.849 2016.01 910.401C2019.41 911.952 2022.05 914.109 2023.94 916.874C2025.83 919.638 2026.81 922.839 2026.87 926.479H2014.49ZM2060.52 924.182V933.727H2032.93V924.182H2060.52ZM2039.19 913.205H2051.9V955.92C2051.9 957.094 2052.08 958.009 2052.44 958.665C2052.8 959.301 2053.29 959.749 2053.93 960.007C2054.59 960.266 2055.34 960.395 2056.2 960.395C2056.79 960.395 2057.39 960.345 2057.99 960.246C2058.58 960.126 2059.04 960.037 2059.36 959.977L2061.36 969.433C2060.72 969.632 2059.83 969.861 2058.67 970.119C2057.52 970.398 2056.12 970.567 2054.47 970.626C2051.4 970.746 2048.72 970.338 2046.41 969.403C2044.13 968.469 2042.35 967.017 2041.07 965.048C2039.8 963.08 2039.17 960.594 2039.19 957.591V913.205ZM2081.86 970.865C2078.94 970.865 2076.34 970.358 2074.05 969.344C2071.76 968.31 2069.95 966.788 2068.62 964.78C2067.31 962.751 2066.65 960.226 2066.65 957.203C2066.65 954.658 2067.12 952.52 2068.05 950.79C2068.99 949.06 2070.26 947.668 2071.87 946.614C2073.48 945.56 2075.31 944.764 2077.36 944.227C2079.43 943.69 2081.6 943.312 2083.86 943.094C2086.53 942.815 2088.68 942.557 2090.31 942.318C2091.94 942.06 2093.12 941.682 2093.86 941.185C2094.59 940.687 2094.96 939.952 2094.96 938.977V938.798C2094.96 936.909 2094.36 935.447 2093.17 934.413C2092 933.379 2090.33 932.862 2088.16 932.862C2085.87 932.862 2084.05 933.369 2082.7 934.384C2081.35 935.378 2080.45 936.631 2080.02 938.142L2068.26 937.188C2068.86 934.403 2070.03 931.997 2071.78 929.969C2073.53 927.92 2075.79 926.349 2078.55 925.256C2081.34 924.142 2084.56 923.585 2088.22 923.585C2090.76 923.585 2093.2 923.884 2095.53 924.48C2097.87 925.077 2099.95 926.001 2101.76 927.254C2103.59 928.507 2105.03 930.118 2106.09 932.087C2107.14 934.036 2107.67 936.372 2107.67 939.097V970H2095.62V963.646H2095.26C2094.52 965.078 2093.54 966.341 2092.31 967.435C2091.07 968.509 2089.59 969.354 2087.86 969.97C2086.13 970.567 2084.13 970.865 2081.86 970.865ZM2085.5 962.095C2087.37 962.095 2089.02 961.727 2090.46 960.991C2091.89 960.236 2093.01 959.222 2093.83 957.949C2094.64 956.676 2095.05 955.234 2095.05 953.624V948.761C2094.65 949.02 2094.1 949.259 2093.41 949.477C2092.73 949.676 2091.97 949.865 2091.11 950.044C2090.26 950.203 2089.4 950.352 2088.55 950.491C2087.69 950.611 2086.92 950.72 2086.22 950.82C2084.73 951.038 2083.43 951.386 2082.31 951.864C2081.2 952.341 2080.33 952.987 2079.72 953.803C2079.1 954.598 2078.79 955.592 2078.79 956.786C2078.79 958.516 2079.42 959.838 2080.67 960.753C2081.94 961.648 2083.56 962.095 2085.5 962.095ZM2138.23 970.895C2133.53 970.895 2129.5 969.901 2126.12 967.912C2122.76 965.903 2120.17 963.119 2118.36 959.56C2116.57 956 2115.68 951.903 2115.68 947.27C2115.68 942.577 2116.58 938.46 2118.39 934.92C2120.22 931.361 2122.82 928.587 2126.18 926.598C2129.54 924.589 2133.53 923.585 2138.17 923.585C2142.17 923.585 2145.67 924.311 2148.67 925.763C2151.67 927.214 2154.05 929.253 2155.8 931.878C2157.55 934.503 2158.51 937.585 2158.69 941.125H2146.7C2146.36 938.838 2145.47 936.999 2144.01 935.607C2142.58 934.195 2140.7 933.489 2138.38 933.489C2136.41 933.489 2134.69 934.026 2133.22 935.099C2131.76 936.153 2130.63 937.695 2129.82 939.723C2129 941.751 2128.59 944.207 2128.59 947.091C2128.59 950.014 2128.99 952.5 2129.79 954.548C2130.6 956.597 2131.74 958.158 2133.22 959.232C2134.69 960.305 2136.41 960.842 2138.38 960.842C2139.83 960.842 2141.13 960.544 2142.28 959.947C2143.46 959.351 2144.42 958.486 2145.18 957.352C2145.95 956.199 2146.46 954.817 2146.7 953.206H2158.69C2158.49 956.706 2157.54 959.788 2155.83 962.453C2154.14 965.098 2151.8 967.166 2148.82 968.658C2145.83 970.149 2142.3 970.895 2138.23 970.895ZM2178.34 956.815L2178.37 941.572H2180.22L2194.9 924.182H2209.48L2189.77 947.21H2186.75L2178.34 956.815ZM2166.83 970V908.909H2179.53V970H2166.83ZM2195.46 970L2181.98 950.044L2190.45 941.065L2210.35 970H2195.46ZM2235.4 908.909H2251.33L2268.15 949.955H2268.87L2285.69 908.909H2301.62V970H2289.09V930.237H2288.58L2272.77 969.702H2264.24L2248.43 930.088H2247.93V970H2235.4V908.909ZM2366.16 930.297H2353.1C2352.86 928.607 2352.37 927.105 2351.64 925.793C2350.9 924.46 2349.96 923.327 2348.8 922.392C2347.65 921.457 2346.32 920.741 2344.8 920.244C2343.31 919.747 2341.69 919.499 2339.94 919.499C2336.78 919.499 2334.03 920.284 2331.68 921.855C2329.33 923.406 2327.51 925.673 2326.22 928.656C2324.93 931.619 2324.28 935.219 2324.28 939.455C2324.28 943.81 2324.93 947.469 2326.22 950.432C2327.53 953.395 2329.36 955.632 2331.71 957.143C2334.06 958.655 2336.77 959.411 2339.85 959.411C2341.58 959.411 2343.18 959.182 2344.66 958.724C2346.15 958.267 2347.47 957.601 2348.62 956.726C2349.78 955.831 2350.73 954.747 2351.49 953.474C2352.26 952.202 2352.8 950.75 2353.1 949.119L2366.16 949.179C2365.82 951.983 2364.98 954.688 2363.63 957.293C2362.29 959.878 2360.5 962.195 2358.23 964.243C2355.98 966.271 2353.3 967.882 2350.17 969.075C2347.07 970.249 2343.56 970.835 2339.64 970.835C2334.2 970.835 2329.32 969.602 2325.03 967.136C2320.75 964.67 2317.37 961.101 2314.89 956.428C2312.42 951.754 2311.19 946.097 2311.19 939.455C2311.19 932.793 2312.44 927.125 2314.95 922.452C2317.45 917.778 2320.85 914.219 2325.15 911.773C2329.44 909.307 2334.28 908.074 2339.64 908.074C2343.18 908.074 2346.47 908.571 2349.49 909.565C2352.53 910.56 2355.23 912.011 2357.57 913.92C2359.92 915.81 2361.83 918.126 2363.3 920.871C2364.79 923.615 2365.75 926.757 2366.16 930.297ZM2375.42 970V908.909H2399.53C2404.16 908.909 2408.11 909.794 2411.37 911.564C2414.63 913.314 2417.12 915.75 2418.83 918.872C2420.56 921.974 2421.42 925.554 2421.42 929.611C2421.42 933.668 2420.55 937.247 2418.8 940.349C2417.05 943.452 2414.51 945.868 2411.19 947.598C2407.89 949.328 2403.89 950.193 2399.2 950.193H2383.84V939.842H2397.11C2399.6 939.842 2401.65 939.415 2403.26 938.56C2404.89 937.685 2406.1 936.482 2406.9 934.95C2407.71 933.399 2408.12 931.619 2408.12 929.611C2408.12 927.582 2407.71 925.812 2406.9 924.301C2406.1 922.77 2404.89 921.587 2403.26 920.751C2401.63 919.896 2399.56 919.469 2397.05 919.469H2388.34V970H2375.42ZM2449.25 970V908.909H2489.7V919.558H2462.17V934.115H2487.02V944.764H2462.17V970H2449.25ZM2497.41 970V924.182H2509.73V932.176H2510.21C2511.04 929.332 2512.45 927.185 2514.42 925.733C2516.38 924.261 2518.65 923.526 2521.22 923.526C2521.85 923.526 2522.54 923.565 2523.28 923.645C2524.01 923.724 2524.66 923.834 2525.21 923.973V935.249C2524.62 935.07 2523.79 934.911 2522.74 934.771C2521.68 934.632 2520.72 934.562 2519.84 934.562C2517.98 934.562 2516.3 934.97 2514.83 935.786C2513.38 936.581 2512.23 937.695 2511.37 939.126C2510.54 940.558 2510.12 942.209 2510.12 944.078V970H2497.41ZM2543.54 970.865C2540.61 970.865 2538.01 970.358 2535.72 969.344C2533.43 968.31 2531.62 966.788 2530.29 964.78C2528.98 962.751 2528.32 960.226 2528.32 957.203C2528.32 954.658 2528.79 952.52 2529.73 950.79C2530.66 949.06 2531.93 947.668 2533.54 946.614C2535.15 945.56 2536.98 944.764 2539.03 944.227C2541.1 943.69 2543.27 943.312 2545.54 943.094C2548.2 942.815 2550.35 942.557 2551.98 942.318C2553.61 942.06 2554.79 941.682 2555.53 941.185C2556.26 940.687 2556.63 939.952 2556.63 938.977V938.798C2556.63 936.909 2556.04 935.447 2554.84 934.413C2553.67 933.379 2552 932.862 2549.83 932.862C2547.54 932.862 2545.72 933.369 2544.37 934.384C2543.02 935.378 2542.12 936.631 2541.69 938.142L2529.93 937.188C2530.53 934.403 2531.7 931.997 2533.45 929.969C2535.2 927.92 2537.46 926.349 2540.23 925.256C2543.01 924.142 2546.23 923.585 2549.89 923.585C2552.44 923.585 2554.87 923.884 2557.2 924.48C2559.55 925.077 2561.62 926.001 2563.43 927.254C2565.26 928.507 2566.7 930.118 2567.76 932.087C2568.81 934.036 2569.34 936.372 2569.34 939.097V970H2557.29V963.646H2556.93C2556.19 965.078 2555.21 966.341 2553.98 967.435C2552.74 968.509 2551.26 969.354 2549.53 969.97C2547.8 970.567 2545.8 970.865 2543.54 970.865ZM2547.18 962.095C2549.05 962.095 2550.7 961.727 2552.13 960.991C2553.56 960.236 2554.68 959.222 2555.5 957.949C2556.31 956.676 2556.72 955.234 2556.72 953.624V948.761C2556.32 949.02 2555.78 949.259 2555.08 949.477C2554.4 949.676 2553.64 949.865 2552.78 950.044C2551.93 950.203 2551.07 950.352 2550.22 950.491C2549.36 950.611 2548.59 950.72 2547.89 950.82C2546.4 951.038 2545.1 951.386 2543.98 951.864C2542.87 952.341 2542.01 952.987 2541.39 953.803C2540.77 954.598 2540.46 955.592 2540.46 956.786C2540.46 958.516 2541.09 959.838 2542.34 960.753C2543.62 961.648 2545.23 962.095 2547.18 962.095ZM2579.2 970V924.182H2591.31V932.266H2591.85C2592.8 929.581 2594.39 927.463 2596.62 925.912C2598.85 924.361 2601.51 923.585 2604.61 923.585C2607.75 923.585 2610.43 924.371 2612.64 925.942C2614.84 927.493 2616.32 929.601 2617.05 932.266H2617.53C2618.46 929.641 2620.15 927.543 2622.6 925.972C2625.07 924.381 2627.98 923.585 2631.34 923.585C2635.62 923.585 2639.09 924.947 2641.75 927.672C2644.44 930.376 2645.78 934.214 2645.78 939.186V970H2633.1V941.692C2633.1 939.146 2632.42 937.237 2631.07 935.964C2629.72 934.692 2628.03 934.055 2626 934.055C2623.69 934.055 2621.89 934.791 2620.6 936.263C2619.31 937.714 2618.66 939.634 2618.66 942.02V970H2606.34V941.423C2606.34 939.176 2605.7 937.386 2604.4 936.054C2603.13 934.722 2601.45 934.055 2599.36 934.055C2597.95 934.055 2596.68 934.413 2595.54 935.129C2594.43 935.825 2593.55 936.81 2592.89 938.082C2592.23 939.335 2591.91 940.807 2591.91 942.497V970H2579.2ZM2676.7 970.895C2671.98 970.895 2667.93 969.94 2664.53 968.031C2661.14 966.102 2658.54 963.378 2656.71 959.858C2654.88 956.318 2653.97 952.132 2653.97 947.3C2653.97 942.587 2654.88 938.45 2656.71 934.891C2658.54 931.331 2661.11 928.557 2664.44 926.568C2667.78 924.58 2671.69 923.585 2676.19 923.585C2679.21 923.585 2682.03 924.072 2684.63 925.047C2687.26 926.001 2689.54 927.443 2691.49 929.372C2693.46 931.301 2694.99 933.727 2696.09 936.651C2697.18 939.554 2697.73 942.955 2697.73 946.852V950.342H2659.04V942.467H2685.76C2685.76 940.638 2685.37 939.017 2684.57 937.605C2683.78 936.193 2682.67 935.089 2681.26 934.294C2679.87 933.479 2678.25 933.071 2676.4 933.071C2674.47 933.071 2672.76 933.518 2671.27 934.413C2669.8 935.288 2668.64 936.472 2667.81 937.963C2666.97 939.435 2666.54 941.075 2666.52 942.885V950.372C2666.52 952.639 2666.94 954.598 2667.78 956.249C2668.63 957.899 2669.84 959.172 2671.39 960.067C2672.94 960.962 2674.78 961.409 2676.9 961.409C2678.32 961.409 2679.61 961.21 2680.78 960.812C2681.96 960.415 2682.96 959.818 2683.8 959.023C2684.63 958.227 2685.27 957.253 2685.7 956.099L2697.46 956.875C2696.86 959.699 2695.64 962.165 2693.79 964.273C2691.96 966.361 2689.59 967.991 2686.69 969.165C2683.81 970.318 2680.47 970.895 2676.7 970.895ZM2714.73 970L2702.26 924.182H2715.12L2722.22 954.966H2722.63L2730.03 924.182H2742.65L2750.17 954.787H2750.55L2757.53 924.182H2770.36L2757.92 970H2744.47L2736.59 941.185H2736.03L2728.15 970H2714.73ZM2796.69 970.895C2792.06 970.895 2788.05 969.911 2784.67 967.942C2781.31 965.953 2778.72 963.189 2776.89 959.649C2775.06 956.089 2774.14 951.963 2774.14 947.27C2774.14 942.537 2775.06 938.401 2776.89 934.861C2778.72 931.301 2781.31 928.537 2784.67 926.568C2788.05 924.58 2792.06 923.585 2796.69 923.585C2801.33 923.585 2805.32 924.58 2808.68 926.568C2812.06 928.537 2814.67 931.301 2816.5 934.861C2818.33 938.401 2819.24 942.537 2819.24 947.27C2819.24 951.963 2818.33 956.089 2816.5 959.649C2814.67 963.189 2812.06 965.953 2808.68 967.942C2805.32 969.911 2801.33 970.895 2796.69 970.895ZM2796.75 961.051C2798.86 961.051 2800.62 960.455 2802.03 959.261C2803.44 958.048 2804.51 956.398 2805.22 954.31C2805.96 952.222 2806.33 949.845 2806.33 947.18C2806.33 944.516 2805.96 942.139 2805.22 940.051C2804.51 937.963 2803.44 936.312 2802.03 935.099C2800.62 933.886 2798.86 933.28 2796.75 933.28C2794.62 933.28 2792.83 933.886 2791.38 935.099C2789.95 936.312 2788.87 937.963 2788.13 940.051C2787.42 942.139 2787.06 944.516 2787.06 947.18C2787.06 949.845 2787.42 952.222 2788.13 954.31C2788.87 956.398 2789.95 958.048 2791.38 959.261C2792.83 960.455 2794.62 961.051 2796.75 961.051ZM2827.51 970V924.182H2839.83V932.176H2840.3C2841.14 929.332 2842.54 927.185 2844.51 925.733C2846.48 924.261 2848.75 923.526 2851.31 923.526C2851.95 923.526 2852.63 923.565 2853.37 923.645C2854.1 923.724 2854.75 923.834 2855.31 923.973V935.249C2854.71 935.07 2853.89 934.911 2852.83 934.771C2851.78 934.632 2850.81 934.562 2849.94 934.562C2848.07 934.562 2846.4 934.97 2844.93 935.786C2843.48 936.581 2842.32 937.695 2841.47 939.126C2840.63 940.558 2840.21 942.209 2840.21 944.078V970H2827.51ZM2873.39 956.815L2873.42 941.572H2875.27L2889.95 924.182H2904.53L2884.82 947.21H2881.8L2873.39 956.815ZM2861.88 970V908.909H2874.59V970H2861.88ZM2890.51 970L2877.03 950.044L2885.5 941.065L2905.4 970H2890.51Z" fill="black"/>
<defs>
<clipPath id="clip0_620_2">
<rect width="480" height="480" fill="white" transform="translate(1121 330)"/>
</clipPath>
</defs>
</svg>
