<svg width="7532" height="1333" viewBox="0 0 7532 1333" fill="none" xmlns="http://www.w3.org/2000/svg">
<rect width="7532" height="1333" fill="white"/>
<path d="M3321.5 575.5C3321.5 548.167 3318 528.5 3311 516.5C3304.33 504.167 3291.67 498 3273 498C3266.33 498 3259 498.5 3251 499.5C3243 500.5 3237 501.333 3233 502V713H3172.5V460C3184.17 456.667 3199.33 453.5 3218 450.5C3237 447.5 3257 446 3278 446C3296 446 3310.67 448.333 3322 453C3333.67 457.667 3343.33 463.833 3351 471.5C3354.67 468.833 3359.33 466 3365 463C3370.67 460 3377 457.333 3384 455C3391 452.333 3398.33 450.167 3406 448.5C3414 446.833 3422 446 3430 446C3450.33 446 3467 449 3480 455C3493.33 460.667 3503.67 468.833 3511 479.5C3518.67 489.833 3523.83 502.5 3526.5 517.5C3529.5 532.167 3531 548.333 3531 566V713H3470.5V575.5C3470.5 548.167 3467.17 528.5 3460.5 516.5C3453.83 504.167 3441 498 3422 498C3412.33 498 3403.17 499.667 3394.5 503C3385.83 506 3379.33 509 3375 512C3377.67 520.333 3379.5 529.167 3380.5 538.5C3381.5 547.833 3382 557.833 3382 568.5V713H3321.5V575.5ZM3580.62 582.5C3580.62 563.167 3583.62 545.167 3589.62 528.5C3595.62 511.5 3604.12 496.833 3615.12 484.5C3626.45 472.167 3640.12 462.5 3656.12 455.5C3672.12 448.5 3690.12 445 3710.12 445C3734.78 445 3758.12 449.5 3780.12 458.5L3767.12 508C3760.12 505 3752.12 502.5 3743.12 500.5C3734.45 498.5 3725.12 497.5 3715.12 497.5C3691.45 497.5 3673.45 505 3661.12 520C3648.78 534.667 3642.62 555.5 3642.62 582.5C3642.62 608.5 3648.45 629.167 3660.12 644.5C3671.78 659.5 3691.45 667 3719.12 667C3729.45 667 3739.62 666 3749.62 664C3759.62 662 3768.28 659.5 3775.62 656.5L3784.12 706.5C3777.45 709.833 3767.28 712.833 3753.62 715.5C3740.28 718.167 3726.45 719.5 3712.12 719.5C3689.78 719.5 3670.28 716.167 3653.62 709.5C3637.28 702.5 3623.62 693 3612.62 681C3601.95 668.667 3593.95 654.167 3588.62 637.5C3583.28 620.5 3580.62 602.167 3580.62 582.5ZM3994.46 583.5C3994.46 556.5 3988.29 535.5 3975.96 520.5C3963.96 505.5 3944.46 498 3917.46 498C3911.79 498 3905.79 498.333 3899.46 499C3893.46 499.333 3887.46 500.333 3881.46 502V651.5C3886.79 655.167 3893.79 658.667 3902.46 662C3911.46 665 3920.96 666.5 3930.96 666.5C3952.96 666.5 3968.96 659 3978.96 644C3989.29 629 3994.46 608.833 3994.46 583.5ZM4056.46 582.5C4056.46 602.5 4053.79 620.833 4048.46 637.5C4043.46 654.167 4036.12 668.5 4026.46 680.5C4016.79 692.5 4004.62 701.833 3989.96 708.5C3975.62 715.167 3959.29 718.5 3940.96 718.5C3928.62 718.5 3917.29 717 3906.96 714C3896.62 711 3888.12 707.667 3881.46 704V805.5H3820.96V460C3833.29 456.667 3848.46 453.5 3866.46 450.5C3884.46 447.5 3903.46 446 3923.46 446C3944.12 446 3962.62 449.167 3978.96 455.5C3995.29 461.833 4009.12 471 4020.46 483C4032.12 494.667 4040.96 509 4046.96 526C4053.29 542.667 4056.46 561.5 4056.46 582.5ZM4081.81 542.5H4216.31V598H4081.81V542.5ZM4471.02 705C4459.36 708 4444.19 711 4425.52 714C4406.86 717.333 4386.36 719 4364.02 719C4343.02 719 4325.36 716 4311.02 710C4297.02 704 4285.69 695.667 4277.02 685C4268.69 674.333 4262.69 661.667 4259.02 647C4255.36 632 4253.52 615.667 4253.52 598V451.5H4314.02V588.5C4314.02 616.5 4318.02 636.5 4326.02 648.5C4334.36 660.5 4348.69 666.5 4369.02 666.5C4376.36 666.5 4384.02 666.167 4392.02 665.5C4400.36 664.833 4406.52 664 4410.52 663V451.5H4471.02V705ZM4603.53 669.5C4619.53 669.5 4631.19 667.667 4638.53 664C4645.86 660 4649.53 653.333 4649.53 644C4649.53 635.333 4645.53 628.167 4637.53 622.5C4629.86 616.833 4617.03 610.667 4599.03 604C4588.03 600 4577.86 595.833 4568.53 591.5C4559.53 586.833 4551.69 581.5 4545.03 575.5C4538.36 569.5 4533.03 562.333 4529.03 554C4525.36 545.333 4523.53 534.833 4523.53 522.5C4523.53 498.5 4532.36 479.667 4550.03 466C4567.69 452 4591.69 445 4622.03 445C4637.36 445 4652.03 446.5 4666.03 449.5C4680.03 452.167 4690.53 454.833 4697.53 457.5L4686.53 506.5C4679.86 503.5 4671.36 500.833 4661.03 498.5C4650.69 495.833 4638.69 494.5 4625.03 494.5C4612.69 494.5 4602.69 496.667 4595.03 501C4587.36 505 4583.53 511.333 4583.53 520C4583.53 524.333 4584.19 528.167 4585.53 531.5C4587.19 534.833 4589.86 538 4593.53 541C4597.19 543.667 4602.03 546.5 4608.03 549.5C4614.03 552.167 4621.36 555 4630.03 558C4644.36 563.333 4656.53 568.667 4666.53 574C4676.53 579 4684.69 584.833 4691.03 591.5C4697.69 597.833 4702.53 605.167 4705.53 613.5C4708.53 621.833 4710.03 631.833 4710.03 643.5C4710.03 668.5 4700.69 687.5 4682.03 700.5C4663.69 713.167 4637.36 719.5 4603.03 719.5C4580.03 719.5 4561.53 717.5 4547.53 713.5C4533.53 709.833 4523.69 706.833 4518.03 704.5L4528.53 654C4537.53 657.667 4548.19 661.167 4560.53 664.5C4573.19 667.833 4587.53 669.5 4603.53 669.5ZM4742.04 583.5C4742.04 560.5 4745.38 540.333 4752.04 523C4759.04 505.667 4768.21 491.333 4779.54 480C4790.88 468.333 4803.88 459.667 4818.54 454C4833.21 448 4848.21 445 4863.54 445C4899.54 445 4927.54 456.167 4947.54 478.5C4967.88 500.833 4978.04 534.167 4978.04 578.5C4978.04 581.833 4977.88 585.667 4977.54 590C4977.54 594 4977.38 597.667 4977.04 601H4804.54C4806.21 622 4813.54 638.333 4826.54 650C4839.88 661.333 4859.04 667 4884.04 667C4898.71 667 4912.04 665.667 4924.04 663C4936.38 660.333 4946.04 657.5 4953.04 654.5L4961.04 704C4957.71 705.667 4953.04 707.5 4947.04 709.5C4941.38 711.167 4934.71 712.667 4927.04 714C4919.71 715.667 4911.71 717 4903.04 718C4894.38 719 4885.54 719.5 4876.54 719.5C4853.54 719.5 4833.54 716.167 4816.54 709.5C4799.54 702.5 4785.54 693 4774.54 681C4763.54 668.667 4755.38 654.333 4750.04 638C4744.71 621.333 4742.04 603.167 4742.04 583.5ZM4917.54 556.5C4917.54 548.167 4916.38 540.333 4914.04 533C4911.71 525.333 4908.21 518.833 4903.54 513.5C4899.21 507.833 4893.71 503.5 4887.04 500.5C4880.71 497.167 4873.04 495.5 4864.04 495.5C4854.71 495.5 4846.54 497.333 4839.54 501C4832.54 504.333 4826.54 508.833 4821.54 514.5C4816.88 520.167 4813.21 526.667 4810.54 534C4807.88 541.333 4806.04 548.833 4805.04 556.5H4917.54Z" fill="black"/>
<g clip-path="url(#clip0_620_2)">
<path d="M2629.7 330C2685.86 330 2731.39 375.702 2731.39 432.079C2731.39 456.557 2730.07 482.071 2740.23 504.344L2747.81 520.989C2761.84 551.756 2786.49 576.431 2817.25 590.482L2831.51 596.996C2854.54 607.516 2880.99 605.841 2906.3 605.841C2962.47 605.841 3008 651.544 3008 707.921C3008 764.297 2962.47 810 2906.3 810C2850.14 810 2804.61 764.297 2804.61 707.921C2804.61 684.218 2805.67 659.551 2795.83 637.986L2787.76 620.284C2773.71 589.478 2749 564.782 2718.19 550.742L2700.96 542.888C2678.99 532.878 2653.83 534.159 2629.7 534.159C2573.53 534.159 2528 488.456 2528 432.079C2528 375.702 2573.53 330 2629.7 330Z" fill="black"/>
<path d="M2624.41 810.001C2677.65 810.001 2720.82 766.837 2720.82 713.592C2720.82 660.347 2677.65 617.184 2624.41 617.184C2571.16 617.184 2528 660.347 2528 713.592C2528 766.837 2571.16 810.001 2624.41 810.001Z" fill="black"/>
<path d="M3008 426.408C3008 479.653 2964.84 522.817 2911.59 522.817C2858.35 522.817 2815.18 479.653 2815.18 426.408C2815.18 373.163 2858.35 330 2911.59 330C2964.84 330 3008 373.163 3008 426.408Z" fill="black"/>
</g>
<path d="M3224.61 970V908.909H3265.06V919.558H3237.53V934.115H3262.38V944.764H3237.53V970H3224.61ZM3300.02 950.491V924.182H3312.73V970H3300.53V961.678H3300.05C3299.02 964.362 3297.3 966.52 3294.89 968.151C3292.5 969.781 3289.59 970.597 3286.15 970.597C3283.09 970.597 3280.39 969.901 3278.07 968.509C3275.74 967.116 3273.92 965.138 3272.61 962.572C3271.32 960.007 3270.66 956.935 3270.64 953.355V924.182H3283.35V951.088C3283.37 953.793 3284.09 955.93 3285.52 957.501C3286.96 959.072 3288.88 959.858 3291.28 959.858C3292.81 959.858 3294.24 959.51 3295.58 958.814C3296.91 958.098 3297.98 957.044 3298.8 955.652C3299.63 954.26 3300.04 952.54 3300.02 950.491ZM3335.6 908.909V970H3322.89V908.909H3335.6ZM3358.49 908.909V970H3345.78V908.909H3358.49ZM3421.49 926.479C3421.25 924.072 3420.22 922.203 3418.41 920.871C3416.61 919.538 3414.15 918.872 3411.05 918.872C3408.94 918.872 3407.16 919.17 3405.71 919.767C3404.26 920.344 3403.14 921.149 3402.37 922.183C3401.61 923.217 3401.23 924.391 3401.23 925.703C3401.19 926.797 3401.42 927.751 3401.92 928.567C3402.44 929.382 3403.14 930.088 3404.04 930.685C3404.93 931.261 3405.97 931.768 3407.14 932.206C3408.31 932.624 3409.57 932.982 3410.9 933.28L3416.39 934.592C3419.05 935.189 3421.5 935.984 3423.72 936.979C3425.95 937.973 3427.88 939.196 3429.51 940.648C3431.14 942.099 3432.41 943.81 3433.3 945.778C3434.21 947.747 3434.68 950.004 3434.7 952.55C3434.68 956.288 3433.73 959.53 3431.84 962.274C3429.97 964.999 3427.26 967.116 3423.72 968.628C3420.2 970.119 3415.96 970.865 3410.99 970.865C3406.06 970.865 3401.76 970.109 3398.1 968.598C3394.46 967.087 3391.62 964.849 3389.57 961.886C3387.54 958.903 3386.48 955.214 3386.38 950.82H3398.88C3399.02 952.868 3399.6 954.578 3400.64 955.95C3401.69 957.303 3403.09 958.327 3404.84 959.023C3406.61 959.699 3408.61 960.037 3410.84 960.037C3413.03 960.037 3414.92 959.719 3416.54 959.082C3418.17 958.446 3419.43 957.561 3420.32 956.428C3421.22 955.294 3421.67 953.991 3421.67 952.52C3421.67 951.148 3421.26 949.994 3420.44 949.06C3419.65 948.125 3418.47 947.33 3416.92 946.673C3415.39 946.017 3413.51 945.42 3411.29 944.884L3404.63 943.213C3399.48 941.96 3395.42 940.001 3392.43 937.337C3389.45 934.672 3387.97 931.082 3387.99 926.568C3387.97 922.869 3388.95 919.638 3390.94 916.874C3392.95 914.109 3395.7 911.952 3399.2 910.401C3402.7 908.849 3406.68 908.074 3411.14 908.074C3415.67 908.074 3419.63 908.849 3423.01 910.401C3426.41 911.952 3429.05 914.109 3430.94 916.874C3432.83 919.638 3433.81 922.839 3433.87 926.479H3421.49ZM3467.52 924.182V933.727H3439.93V924.182H3467.52ZM3446.19 913.205H3458.9V955.92C3458.9 957.094 3459.08 958.009 3459.44 958.665C3459.8 959.301 3460.29 959.749 3460.93 960.007C3461.59 960.266 3462.34 960.395 3463.2 960.395C3463.79 960.395 3464.39 960.345 3464.99 960.246C3465.58 960.126 3466.04 960.037 3466.36 959.977L3468.36 969.433C3467.72 969.632 3466.83 969.861 3465.67 970.119C3464.52 970.398 3463.12 970.567 3461.47 970.626C3458.4 970.746 3455.72 970.338 3453.41 969.403C3451.13 968.469 3449.35 967.017 3448.07 965.048C3446.8 963.08 3446.17 960.594 3446.19 957.591V913.205ZM3488.86 970.865C3485.94 970.865 3483.34 970.358 3481.05 969.344C3478.76 968.31 3476.95 966.788 3475.62 964.78C3474.31 962.751 3473.65 960.226 3473.65 957.203C3473.65 954.658 3474.12 952.52 3475.05 950.79C3475.99 949.06 3477.26 947.668 3478.87 946.614C3480.48 945.56 3482.31 944.764 3484.36 944.227C3486.43 943.69 3488.6 943.312 3490.86 943.094C3493.53 942.815 3495.68 942.557 3497.31 942.318C3498.94 942.06 3500.12 941.682 3500.86 941.185C3501.59 940.687 3501.96 939.952 3501.96 938.977V938.798C3501.96 936.909 3501.36 935.447 3500.17 934.413C3499 933.379 3497.33 932.862 3495.16 932.862C3492.87 932.862 3491.05 933.369 3489.7 934.384C3488.35 935.378 3487.45 936.631 3487.02 938.142L3475.26 937.188C3475.86 934.403 3477.03 931.997 3478.78 929.969C3480.53 927.92 3482.79 926.349 3485.55 925.256C3488.34 924.142 3491.56 923.585 3495.22 923.585C3497.76 923.585 3500.2 923.884 3502.53 924.48C3504.87 925.077 3506.95 926.001 3508.76 927.254C3510.59 928.507 3512.03 930.118 3513.09 932.087C3514.14 934.036 3514.67 936.372 3514.67 939.097V970H3502.62V963.646H3502.26C3501.52 965.078 3500.54 966.341 3499.31 967.435C3498.07 968.509 3496.59 969.354 3494.86 969.97C3493.13 970.567 3491.13 970.865 3488.86 970.865ZM3492.5 962.095C3494.37 962.095 3496.02 961.727 3497.46 960.991C3498.89 960.236 3500.01 959.222 3500.83 957.949C3501.64 956.676 3502.05 955.234 3502.05 953.624V948.761C3501.65 949.02 3501.1 949.259 3500.41 949.477C3499.73 949.676 3498.97 949.865 3498.11 950.044C3497.26 950.203 3496.4 950.352 3495.55 950.491C3494.69 950.611 3493.92 950.72 3493.22 950.82C3491.73 951.038 3490.43 951.386 3489.31 951.864C3488.2 952.341 3487.33 952.987 3486.72 953.803C3486.1 954.598 3485.79 955.592 3485.79 956.786C3485.79 958.516 3486.42 959.838 3487.67 960.753C3488.94 961.648 3490.56 962.095 3492.5 962.095ZM3545.23 970.895C3540.53 970.895 3536.5 969.901 3533.12 967.912C3529.76 965.903 3527.17 963.119 3525.36 959.56C3523.57 956 3522.68 951.903 3522.68 947.27C3522.68 942.577 3523.58 938.46 3525.39 934.92C3527.22 931.361 3529.82 928.587 3533.18 926.598C3536.54 924.589 3540.53 923.585 3545.17 923.585C3549.17 923.585 3552.67 924.311 3555.67 925.763C3558.67 927.214 3561.05 929.253 3562.8 931.878C3564.55 934.503 3565.51 937.585 3565.69 941.125H3553.7C3553.36 938.838 3552.47 936.999 3551.01 935.607C3549.58 934.195 3547.7 933.489 3545.38 933.489C3543.41 933.489 3541.69 934.026 3540.22 935.099C3538.76 936.153 3537.63 937.695 3536.82 939.723C3536 941.751 3535.59 944.207 3535.59 947.091C3535.59 950.014 3535.99 952.5 3536.79 954.548C3537.6 956.597 3538.74 958.158 3540.22 959.232C3541.69 960.305 3543.41 960.842 3545.38 960.842C3546.83 960.842 3548.13 960.544 3549.28 959.947C3550.46 959.351 3551.42 958.486 3552.18 957.352C3552.95 956.199 3553.46 954.817 3553.7 953.206H3565.69C3565.49 956.706 3564.54 959.788 3562.83 962.453C3561.14 965.098 3558.8 967.166 3555.82 968.658C3552.83 970.149 3549.3 970.895 3545.23 970.895ZM3585.34 956.815L3585.37 941.572H3587.22L3601.9 924.182H3616.48L3596.77 947.21H3593.75L3585.34 956.815ZM3573.83 970V908.909H3586.53V970H3573.83ZM3602.46 970L3588.98 950.044L3597.45 941.065L3617.35 970H3602.46ZM3642.4 908.909H3658.33L3675.15 949.955H3675.87L3692.69 908.909H3708.62V970H3696.09V930.237H3695.58L3679.77 969.702H3671.24L3655.43 930.088H3654.93V970H3642.4V908.909ZM3773.16 930.297H3760.1C3759.86 928.607 3759.37 927.105 3758.64 925.793C3757.9 924.46 3756.96 923.327 3755.8 922.392C3754.65 921.457 3753.32 920.741 3751.8 920.244C3750.31 919.747 3748.69 919.499 3746.94 919.499C3743.78 919.499 3741.03 920.284 3738.68 921.855C3736.33 923.406 3734.51 925.673 3733.22 928.656C3731.93 931.619 3731.28 935.219 3731.28 939.455C3731.28 943.81 3731.93 947.469 3733.22 950.432C3734.53 953.395 3736.36 955.632 3738.71 957.143C3741.06 958.655 3743.77 959.411 3746.85 959.411C3748.58 959.411 3750.18 959.182 3751.66 958.724C3753.15 958.267 3754.47 957.601 3755.62 956.726C3756.78 955.831 3757.73 954.747 3758.49 953.474C3759.26 952.202 3759.8 950.75 3760.1 949.119L3773.16 949.179C3772.82 951.983 3771.98 954.688 3770.63 957.293C3769.29 959.878 3767.5 962.195 3765.23 964.243C3762.98 966.271 3760.3 967.882 3757.17 969.075C3754.07 970.249 3750.56 970.835 3746.64 970.835C3741.2 970.835 3736.32 969.602 3732.03 967.136C3727.75 964.67 3724.37 961.101 3721.89 956.428C3719.42 951.754 3718.19 946.097 3718.19 939.455C3718.19 932.793 3719.44 927.125 3721.95 922.452C3724.45 917.778 3727.85 914.219 3732.15 911.773C3736.44 909.307 3741.28 908.074 3746.64 908.074C3750.18 908.074 3753.47 908.571 3756.49 909.565C3759.53 910.56 3762.23 912.011 3764.57 913.92C3766.92 915.81 3768.83 918.126 3770.3 920.871C3771.79 923.615 3772.75 926.757 3773.16 930.297ZM3782.42 970V908.909H3806.53C3811.16 908.909 3815.11 909.794 3818.37 911.564C3821.63 913.314 3824.12 915.75 3825.83 918.872C3827.56 921.974 3828.42 925.554 3828.42 929.611C3828.42 933.668 3827.55 937.247 3825.8 940.349C3824.05 943.452 3821.51 945.868 3818.19 947.598C3814.89 949.328 3810.89 950.193 3806.2 950.193H3790.84V939.842H3804.11C3806.6 939.842 3808.65 939.415 3810.26 938.56C3811.89 937.685 3813.1 936.482 3813.9 934.95C3814.71 933.399 3815.12 931.619 3815.12 929.611C3815.12 927.582 3814.71 925.812 3813.9 924.301C3813.1 922.77 3811.89 921.587 3810.26 920.751C3808.63 919.896 3806.56 919.469 3804.05 919.469H3795.34V970H3782.42ZM3856.25 970V908.909H3896.7V919.558H3869.17V934.115H3894.02V944.764H3869.17V970H3856.25ZM3904.41 970V924.182H3916.73V932.176H3917.21C3918.04 929.332 3919.45 927.185 3921.42 925.733C3923.38 924.261 3925.65 923.526 3928.22 923.526C3928.85 923.526 3929.54 923.565 3930.28 923.645C3931.01 923.724 3931.66 923.834 3932.21 923.973V935.249C3931.62 935.07 3930.79 934.911 3929.74 934.771C3928.68 934.632 3927.72 934.562 3926.84 934.562C3924.98 934.562 3923.3 934.97 3921.83 935.786C3920.38 936.581 3919.23 937.695 3918.37 939.126C3917.54 940.558 3917.12 942.209 3917.12 944.078V970H3904.41ZM3950.54 970.865C3947.61 970.865 3945.01 970.358 3942.72 969.344C3940.43 968.31 3938.62 966.788 3937.29 964.78C3935.98 962.751 3935.32 960.226 3935.32 957.203C3935.32 954.658 3935.79 952.52 3936.73 950.79C3937.66 949.06 3938.93 947.668 3940.54 946.614C3942.15 945.56 3943.98 944.764 3946.03 944.227C3948.1 943.69 3950.27 943.312 3952.54 943.094C3955.2 942.815 3957.35 942.557 3958.98 942.318C3960.61 942.06 3961.79 941.682 3962.53 941.185C3963.26 940.687 3963.63 939.952 3963.63 938.977V938.798C3963.63 936.909 3963.04 935.447 3961.84 934.413C3960.67 933.379 3959 932.862 3956.83 932.862C3954.54 932.862 3952.72 933.369 3951.37 934.384C3950.02 935.378 3949.12 936.631 3948.69 938.142L3936.93 937.188C3937.53 934.403 3938.7 931.997 3940.45 929.969C3942.2 927.92 3944.46 926.349 3947.23 925.256C3950.01 924.142 3953.23 923.585 3956.89 923.585C3959.44 923.585 3961.87 923.884 3964.2 924.48C3966.55 925.077 3968.62 926.001 3970.43 927.254C3972.26 928.507 3973.7 930.118 3974.76 932.087C3975.81 934.036 3976.34 936.372 3976.34 939.097V970H3964.29V963.646H3963.93C3963.19 965.078 3962.21 966.341 3960.98 967.435C3959.74 968.509 3958.26 969.354 3956.53 969.97C3954.8 970.567 3952.8 970.865 3950.54 970.865ZM3954.18 962.095C3956.05 962.095 3957.7 961.727 3959.13 960.991C3960.56 960.236 3961.68 959.222 3962.5 957.949C3963.31 956.676 3963.72 955.234 3963.72 953.624V948.761C3963.32 949.02 3962.78 949.259 3962.08 949.477C3961.4 949.676 3960.64 949.865 3959.78 950.044C3958.93 950.203 3958.07 950.352 3957.22 950.491C3956.36 950.611 3955.59 950.72 3954.89 950.82C3953.4 951.038 3952.1 951.386 3950.98 951.864C3949.87 952.341 3949.01 952.987 3948.39 953.803C3947.77 954.598 3947.46 955.592 3947.46 956.786C3947.46 958.516 3948.09 959.838 3949.34 960.753C3950.62 961.648 3952.23 962.095 3954.18 962.095ZM3986.2 970V924.182H3998.31V932.266H3998.85C3999.8 929.581 4001.39 927.463 4003.62 925.912C4005.85 924.361 4008.51 923.585 4011.61 923.585C4014.75 923.585 4017.43 924.371 4019.64 925.942C4021.84 927.493 4023.32 929.601 4024.05 932.266H4024.53C4025.46 929.641 4027.15 927.543 4029.6 925.972C4032.07 924.381 4034.98 923.585 4038.34 923.585C4042.62 923.585 4046.09 924.947 4048.75 927.672C4051.44 930.376 4052.78 934.214 4052.78 939.186V970H4040.1V941.692C4040.1 939.146 4039.42 937.237 4038.07 935.964C4036.72 934.692 4035.03 934.055 4033 934.055C4030.69 934.055 4028.89 934.791 4027.6 936.263C4026.31 937.714 4025.66 939.634 4025.66 942.02V970H4013.34V941.423C4013.34 939.176 4012.7 937.386 4011.4 936.054C4010.13 934.722 4008.45 934.055 4006.36 934.055C4004.95 934.055 4003.68 934.413 4002.54 935.129C4001.43 935.825 4000.55 936.81 3999.89 938.082C3999.23 939.335 3998.91 940.807 3998.91 942.497V970H3986.2ZM4083.7 970.895C4078.98 970.895 4074.93 969.94 4071.53 968.031C4068.14 966.102 4065.54 963.378 4063.71 959.858C4061.88 956.318 4060.97 952.132 4060.97 947.3C4060.97 942.587 4061.88 938.45 4063.71 934.891C4065.54 931.331 4068.11 928.557 4071.44 926.568C4074.78 924.58 4078.69 923.585 4083.19 923.585C4086.21 923.585 4089.03 924.072 4091.63 925.047C4094.26 926.001 4096.54 927.443 4098.49 929.372C4100.46 931.301 4101.99 933.727 4103.09 936.651C4104.18 939.554 4104.73 942.955 4104.73 946.852V950.342H4066.04V942.467H4092.76C4092.76 940.638 4092.37 939.017 4091.57 937.605C4090.78 936.193 4089.67 935.089 4088.26 934.294C4086.87 933.479 4085.25 933.071 4083.4 933.071C4081.47 933.071 4079.76 933.518 4078.27 934.413C4076.8 935.288 4075.64 936.472 4074.81 937.963C4073.97 939.435 4073.54 941.075 4073.52 942.885V950.372C4073.52 952.639 4073.94 954.598 4074.78 956.249C4075.63 957.899 4076.84 959.172 4078.39 960.067C4079.94 960.962 4081.78 961.409 4083.9 961.409C4085.32 961.409 4086.61 961.21 4087.78 960.812C4088.96 960.415 4089.96 959.818 4090.8 959.023C4091.63 958.227 4092.27 957.253 4092.7 956.099L4104.46 956.875C4103.86 959.699 4102.64 962.165 4100.79 964.273C4098.96 966.361 4096.59 967.991 4093.69 969.165C4090.81 970.318 4087.47 970.895 4083.7 970.895ZM4121.73 970L4109.26 924.182H4122.12L4129.22 954.966H4129.63L4137.03 924.182H4149.65L4157.17 954.787H4157.55L4164.53 924.182H4177.36L4164.92 970H4151.47L4143.59 941.185H4143.03L4135.15 970H4121.73ZM4203.69 970.895C4199.06 970.895 4195.05 969.911 4191.67 967.942C4188.31 965.953 4185.72 963.189 4183.89 959.649C4182.06 956.089 4181.14 951.963 4181.14 947.27C4181.14 942.537 4182.06 938.401 4183.89 934.861C4185.72 931.301 4188.31 928.537 4191.67 926.568C4195.05 924.58 4199.06 923.585 4203.69 923.585C4208.33 923.585 4212.32 924.58 4215.68 926.568C4219.06 928.537 4221.67 931.301 4223.5 934.861C4225.33 938.401 4226.24 942.537 4226.24 947.27C4226.24 951.963 4225.33 956.089 4223.5 959.649C4221.67 963.189 4219.06 965.953 4215.68 967.942C4212.32 969.911 4208.33 970.895 4203.69 970.895ZM4203.75 961.051C4205.86 961.051 4207.62 960.455 4209.03 959.261C4210.44 958.048 4211.51 956.398 4212.22 954.31C4212.96 952.222 4213.33 949.845 4213.33 947.18C4213.33 944.516 4212.96 942.139 4212.22 940.051C4211.51 937.963 4210.44 936.312 4209.03 935.099C4207.62 933.886 4205.86 933.28 4203.75 933.28C4201.62 933.28 4199.83 933.886 4198.38 935.099C4196.95 936.312 4195.87 937.963 4195.13 940.051C4194.42 942.139 4194.06 944.516 4194.06 947.18C4194.06 949.845 4194.42 952.222 4195.13 954.31C4195.87 956.398 4196.95 958.048 4198.38 959.261C4199.83 960.455 4201.62 961.051 4203.75 961.051ZM4234.51 970V924.182H4246.83V932.176H4247.3C4248.14 929.332 4249.54 927.185 4251.51 925.733C4253.48 924.261 4255.75 923.526 4258.31 923.526C4258.95 923.526 4259.63 923.565 4260.37 923.645C4261.1 923.724 4261.75 923.834 4262.31 923.973V935.249C4261.71 935.07 4260.89 934.911 4259.83 934.771C4258.78 934.632 4257.81 934.562 4256.94 934.562C4255.07 934.562 4253.4 934.97 4251.93 935.786C4250.48 936.581 4249.32 937.695 4248.47 939.126C4247.63 940.558 4247.21 942.209 4247.21 944.078V970H4234.51ZM4280.39 956.815L4280.42 941.572H4282.27L4296.95 924.182H4311.53L4291.82 947.21H4288.8L4280.39 956.815ZM4268.88 970V908.909H4281.59V970H4268.88ZM4297.51 970L4284.03 950.044L4292.5 941.065L4312.4 970H4297.51Z" fill="black"/>
<defs>
<clipPath id="clip0_620_2">
<rect width="480" height="480" fill="white" transform="translate(2528 330)"/>
</clipPath>
</defs>
</svg>
