<svg width="4806" height="1333" viewBox="0 0 4806 1333" fill="none" xmlns="http://www.w3.org/2000/svg">
<rect width="4806" height="1333" fill="black"/>
<path d="M1958.5 575.5C1958.5 548.167 1955 528.5 1948 516.5C1941.33 504.167 1928.67 498 1910 498C1903.33 498 1896 498.5 1888 499.5C1880 500.5 1874 501.333 1870 502V713H1809.5V460C1821.17 456.667 1836.33 453.5 1855 450.5C1874 447.5 1894 446 1915 446C1933 446 1947.67 448.333 1959 453C1970.67 457.667 1980.33 463.833 1988 471.5C1991.67 468.833 1996.33 466 2002 463C2007.67 460 2014 457.333 2021 455C2028 452.333 2035.33 450.167 2043 448.5C2051 446.833 2059 446 2067 446C2087.33 446 2104 449 2117 455C2130.33 460.667 2140.67 468.833 2148 479.5C2155.67 489.833 2160.83 502.5 2163.5 517.5C2166.5 532.167 2168 548.333 2168 566V713H2107.5V575.5C2107.5 548.167 2104.17 528.5 2097.5 516.5C2090.83 504.167 2078 498 2059 498C2049.33 498 2040.17 499.667 2031.5 503C2022.83 506 2016.33 509 2012 512C2014.67 520.333 2016.5 529.167 2017.5 538.5C2018.5 547.833 2019 557.833 2019 568.5V713H1958.5V575.5ZM2217.62 582.5C2217.62 563.167 2220.62 545.167 2226.62 528.5C2232.62 511.5 2241.12 496.833 2252.12 484.5C2263.45 472.167 2277.12 462.5 2293.12 455.5C2309.12 448.5 2327.12 445 2347.12 445C2371.78 445 2395.12 449.5 2417.12 458.5L2404.12 508C2397.12 505 2389.12 502.5 2380.12 500.5C2371.45 498.5 2362.12 497.5 2352.12 497.5C2328.45 497.5 2310.45 505 2298.12 520C2285.78 534.667 2279.62 555.5 2279.62 582.5C2279.62 608.5 2285.45 629.167 2297.12 644.5C2308.78 659.5 2328.45 667 2356.12 667C2366.45 667 2376.62 666 2386.62 664C2396.62 662 2405.28 659.5 2412.62 656.5L2421.12 706.5C2414.45 709.833 2404.28 712.833 2390.62 715.5C2377.28 718.167 2363.45 719.5 2349.12 719.5C2326.78 719.5 2307.28 716.167 2290.62 709.5C2274.28 702.5 2260.62 693 2249.62 681C2238.95 668.667 2230.95 654.167 2225.62 637.5C2220.28 620.5 2217.62 602.167 2217.62 582.5ZM2631.46 583.5C2631.46 556.5 2625.29 535.5 2612.96 520.5C2600.96 505.5 2581.46 498 2554.46 498C2548.79 498 2542.79 498.333 2536.46 499C2530.46 499.333 2524.46 500.333 2518.46 502V651.5C2523.79 655.167 2530.79 658.667 2539.46 662C2548.46 665 2557.96 666.5 2567.96 666.5C2589.96 666.5 2605.96 659 2615.96 644C2626.29 629 2631.46 608.833 2631.46 583.5ZM2693.46 582.5C2693.46 602.5 2690.79 620.833 2685.46 637.5C2680.46 654.167 2673.12 668.5 2663.46 680.5C2653.79 692.5 2641.62 701.833 2626.96 708.5C2612.62 715.167 2596.29 718.5 2577.96 718.5C2565.62 718.5 2554.29 717 2543.96 714C2533.62 711 2525.12 707.667 2518.46 704V805.5H2457.96V460C2470.29 456.667 2485.46 453.5 2503.46 450.5C2521.46 447.5 2540.46 446 2560.46 446C2581.12 446 2599.62 449.167 2615.96 455.5C2632.29 461.833 2646.12 471 2657.46 483C2669.12 494.667 2677.96 509 2683.96 526C2690.29 542.667 2693.46 561.5 2693.46 582.5ZM2718.81 542.5H2853.31V598H2718.81V542.5ZM3108.02 705C3096.36 708 3081.19 711 3062.52 714C3043.86 717.333 3023.36 719 3001.02 719C2980.02 719 2962.36 716 2948.02 710C2934.02 704 2922.69 695.667 2914.02 685C2905.69 674.333 2899.69 661.667 2896.02 647C2892.36 632 2890.52 615.667 2890.52 598V451.5H2951.02V588.5C2951.02 616.5 2955.02 636.5 2963.02 648.5C2971.36 660.5 2985.69 666.5 3006.02 666.5C3013.36 666.5 3021.02 666.167 3029.02 665.5C3037.36 664.833 3043.52 664 3047.52 663V451.5H3108.02V705ZM3240.53 669.5C3256.53 669.5 3268.19 667.667 3275.53 664C3282.86 660 3286.53 653.333 3286.53 644C3286.53 635.333 3282.53 628.167 3274.53 622.5C3266.86 616.833 3254.03 610.667 3236.03 604C3225.03 600 3214.86 595.833 3205.53 591.5C3196.53 586.833 3188.69 581.5 3182.03 575.5C3175.36 569.5 3170.03 562.333 3166.03 554C3162.36 545.333 3160.53 534.833 3160.53 522.5C3160.53 498.5 3169.36 479.667 3187.03 466C3204.69 452 3228.69 445 3259.03 445C3274.36 445 3289.03 446.5 3303.03 449.5C3317.03 452.167 3327.53 454.833 3334.53 457.5L3323.53 506.5C3316.86 503.5 3308.36 500.833 3298.03 498.5C3287.69 495.833 3275.69 494.5 3262.03 494.5C3249.69 494.5 3239.69 496.667 3232.03 501C3224.36 505 3220.53 511.333 3220.53 520C3220.53 524.333 3221.19 528.167 3222.53 531.5C3224.19 534.833 3226.86 538 3230.53 541C3234.19 543.667 3239.03 546.5 3245.03 549.5C3251.03 552.167 3258.36 555 3267.03 558C3281.36 563.333 3293.53 568.667 3303.53 574C3313.53 579 3321.69 584.833 3328.03 591.5C3334.69 597.833 3339.53 605.167 3342.53 613.5C3345.53 621.833 3347.03 631.833 3347.03 643.5C3347.03 668.5 3337.69 687.5 3319.03 700.5C3300.69 713.167 3274.36 719.5 3240.03 719.5C3217.03 719.5 3198.53 717.5 3184.53 713.5C3170.53 709.833 3160.69 706.833 3155.03 704.5L3165.53 654C3174.53 657.667 3185.19 661.167 3197.53 664.5C3210.19 667.833 3224.53 669.5 3240.53 669.5ZM3379.04 583.5C3379.04 560.5 3382.38 540.333 3389.04 523C3396.04 505.667 3405.21 491.333 3416.54 480C3427.88 468.333 3440.88 459.667 3455.54 454C3470.21 448 3485.21 445 3500.54 445C3536.54 445 3564.54 456.167 3584.54 478.5C3604.88 500.833 3615.04 534.167 3615.04 578.5C3615.04 581.833 3614.88 585.667 3614.54 590C3614.54 594 3614.38 597.667 3614.04 601H3441.54C3443.21 622 3450.54 638.333 3463.54 650C3476.88 661.333 3496.04 667 3521.04 667C3535.71 667 3549.04 665.667 3561.04 663C3573.38 660.333 3583.04 657.5 3590.04 654.5L3598.04 704C3594.71 705.667 3590.04 707.5 3584.04 709.5C3578.38 711.167 3571.71 712.667 3564.04 714C3556.71 715.667 3548.71 717 3540.04 718C3531.38 719 3522.54 719.5 3513.54 719.5C3490.54 719.5 3470.54 716.167 3453.54 709.5C3436.54 702.5 3422.54 693 3411.54 681C3400.54 668.667 3392.38 654.333 3387.04 638C3381.71 621.333 3379.04 603.167 3379.04 583.5ZM3554.54 556.5C3554.54 548.167 3553.38 540.333 3551.04 533C3548.71 525.333 3545.21 518.833 3540.54 513.5C3536.21 507.833 3530.71 503.5 3524.04 500.5C3517.71 497.167 3510.04 495.5 3501.04 495.5C3491.71 495.5 3483.54 497.333 3476.54 501C3469.54 504.333 3463.54 508.833 3458.54 514.5C3453.88 520.167 3450.21 526.667 3447.54 534C3444.88 541.333 3443.04 548.833 3442.04 556.5H3554.54Z" fill="white"/>
<g clip-path="url(#clip0_618_2)">
<path d="M1266.7 330C1322.86 330 1368.39 375.702 1368.39 432.079C1368.39 456.557 1367.07 482.071 1377.23 504.344L1384.81 520.989C1398.84 551.756 1423.49 576.431 1454.25 590.482L1468.51 596.996C1491.54 607.516 1517.99 605.841 1543.3 605.841C1599.47 605.841 1645 651.544 1645 707.921C1645 764.297 1599.47 810 1543.3 810C1487.14 810 1441.61 764.297 1441.61 707.921C1441.61 684.218 1442.67 659.551 1432.83 637.986L1424.76 620.284C1410.71 589.478 1386 564.782 1355.19 550.742L1337.96 542.888C1315.99 532.878 1290.83 534.159 1266.7 534.159C1210.53 534.159 1165 488.456 1165 432.079C1165 375.702 1210.53 330 1266.7 330Z" fill="white"/>
<path d="M1261.41 810.001C1314.65 810.001 1357.82 766.837 1357.82 713.592C1357.82 660.347 1314.65 617.184 1261.41 617.184C1208.16 617.184 1165 660.347 1165 713.592C1165 766.837 1208.16 810.001 1261.41 810.001Z" fill="white"/>
<path d="M1645 426.408C1645 479.653 1601.84 522.817 1548.59 522.817C1495.35 522.817 1452.18 479.653 1452.18 426.408C1452.18 373.163 1495.35 330 1548.59 330C1601.84 330 1645 373.163 1645 426.408Z" fill="white"/>
</g>
<path d="M1861.61 970V908.909H1902.06V919.558H1874.53V934.115H1899.38V944.764H1874.53V970H1861.61ZM1937.02 950.491V924.182H1949.73V970H1937.53V961.678H1937.05C1936.02 964.362 1934.3 966.52 1931.89 968.151C1929.5 969.781 1926.59 970.597 1923.15 970.597C1920.09 970.597 1917.39 969.901 1915.07 968.509C1912.74 967.116 1910.92 965.138 1909.61 962.572C1908.32 960.007 1907.66 956.935 1907.64 953.355V924.182H1920.35V951.088C1920.37 953.793 1921.09 955.93 1922.52 957.501C1923.96 959.072 1925.88 959.858 1928.28 959.858C1929.81 959.858 1931.24 959.51 1932.58 958.814C1933.91 958.098 1934.98 957.044 1935.8 955.652C1936.63 954.26 1937.04 952.54 1937.02 950.491ZM1972.6 908.909V970H1959.89V908.909H1972.6ZM1995.49 908.909V970H1982.78V908.909H1995.49ZM2058.49 926.479C2058.25 924.072 2057.22 922.203 2055.41 920.871C2053.61 919.538 2051.15 918.872 2048.05 918.872C2045.94 918.872 2044.16 919.17 2042.71 919.767C2041.26 920.344 2040.14 921.149 2039.37 922.183C2038.61 923.217 2038.23 924.391 2038.23 925.703C2038.19 926.797 2038.42 927.751 2038.92 928.567C2039.44 929.382 2040.14 930.088 2041.04 930.685C2041.93 931.261 2042.97 931.768 2044.14 932.206C2045.31 932.624 2046.57 932.982 2047.9 933.28L2053.39 934.592C2056.05 935.189 2058.5 935.984 2060.72 936.979C2062.95 937.973 2064.88 939.196 2066.51 940.648C2068.14 942.099 2069.41 943.81 2070.3 945.778C2071.21 947.747 2071.68 950.004 2071.7 952.55C2071.68 956.288 2070.73 959.53 2068.84 962.274C2066.97 964.999 2064.26 967.116 2060.72 968.628C2057.2 970.119 2052.96 970.865 2047.99 970.865C2043.06 970.865 2038.76 970.109 2035.1 968.598C2031.46 967.087 2028.62 964.849 2026.57 961.886C2024.54 958.903 2023.48 955.214 2023.38 950.82H2035.88C2036.02 952.868 2036.6 954.578 2037.64 955.95C2038.69 957.303 2040.09 958.327 2041.84 959.023C2043.61 959.699 2045.61 960.037 2047.84 960.037C2050.03 960.037 2051.92 959.719 2053.54 959.082C2055.17 958.446 2056.43 957.561 2057.32 956.428C2058.22 955.294 2058.67 953.991 2058.67 952.52C2058.67 951.148 2058.26 949.994 2057.44 949.06C2056.65 948.125 2055.47 947.33 2053.92 946.673C2052.39 946.017 2050.51 945.42 2048.29 944.884L2041.63 943.213C2036.48 941.96 2032.42 940.001 2029.43 937.337C2026.45 934.672 2024.97 931.082 2024.99 926.568C2024.97 922.869 2025.95 919.638 2027.94 916.874C2029.95 914.109 2032.7 911.952 2036.2 910.401C2039.7 908.849 2043.68 908.074 2048.14 908.074C2052.67 908.074 2056.63 908.849 2060.01 910.401C2063.41 911.952 2066.05 914.109 2067.94 916.874C2069.83 919.638 2070.81 922.839 2070.87 926.479H2058.49ZM2104.52 924.182V933.727H2076.93V924.182H2104.52ZM2083.19 913.205H2095.9V955.92C2095.9 957.094 2096.08 958.009 2096.44 958.665C2096.8 959.301 2097.29 959.749 2097.93 960.007C2098.59 960.266 2099.34 960.395 2100.2 960.395C2100.79 960.395 2101.39 960.345 2101.99 960.246C2102.58 960.126 2103.04 960.037 2103.36 959.977L2105.36 969.433C2104.72 969.632 2103.83 969.861 2102.67 970.119C2101.52 970.398 2100.12 970.567 2098.47 970.626C2095.4 970.746 2092.72 970.338 2090.41 969.403C2088.13 968.469 2086.35 967.017 2085.07 965.048C2083.8 963.08 2083.17 960.594 2083.19 957.591V913.205ZM2125.86 970.865C2122.94 970.865 2120.34 970.358 2118.05 969.344C2115.76 968.31 2113.95 966.788 2112.62 964.78C2111.31 962.751 2110.65 960.226 2110.65 957.203C2110.65 954.658 2111.12 952.52 2112.05 950.79C2112.99 949.06 2114.26 947.668 2115.87 946.614C2117.48 945.56 2119.31 944.764 2121.36 944.227C2123.43 943.69 2125.6 943.312 2127.86 943.094C2130.53 942.815 2132.68 942.557 2134.31 942.318C2135.94 942.06 2137.12 941.682 2137.86 941.185C2138.59 940.687 2138.96 939.952 2138.96 938.977V938.798C2138.96 936.909 2138.36 935.447 2137.17 934.413C2136 933.379 2134.33 932.862 2132.16 932.862C2129.87 932.862 2128.05 933.369 2126.7 934.384C2125.35 935.378 2124.45 936.631 2124.02 938.142L2112.26 937.188C2112.86 934.403 2114.03 931.997 2115.78 929.969C2117.53 927.92 2119.79 926.349 2122.55 925.256C2125.34 924.142 2128.56 923.585 2132.22 923.585C2134.76 923.585 2137.2 923.884 2139.53 924.48C2141.87 925.077 2143.95 926.001 2145.76 927.254C2147.59 928.507 2149.03 930.118 2150.09 932.087C2151.14 934.036 2151.67 936.372 2151.67 939.097V970H2139.62V963.646H2139.26C2138.52 965.078 2137.54 966.341 2136.31 967.435C2135.07 968.509 2133.59 969.354 2131.86 969.97C2130.13 970.567 2128.13 970.865 2125.86 970.865ZM2129.5 962.095C2131.37 962.095 2133.02 961.727 2134.46 960.991C2135.89 960.236 2137.01 959.222 2137.83 957.949C2138.64 956.676 2139.05 955.234 2139.05 953.624V948.761C2138.65 949.02 2138.1 949.259 2137.41 949.477C2136.73 949.676 2135.97 949.865 2135.11 950.044C2134.26 950.203 2133.4 950.352 2132.55 950.491C2131.69 950.611 2130.92 950.72 2130.22 950.82C2128.73 951.038 2127.43 951.386 2126.31 951.864C2125.2 952.341 2124.33 952.987 2123.72 953.803C2123.1 954.598 2122.79 955.592 2122.79 956.786C2122.79 958.516 2123.42 959.838 2124.67 960.753C2125.94 961.648 2127.56 962.095 2129.5 962.095ZM2182.23 970.895C2177.53 970.895 2173.5 969.901 2170.12 967.912C2166.76 965.903 2164.17 963.119 2162.36 959.56C2160.57 956 2159.68 951.903 2159.68 947.27C2159.68 942.577 2160.58 938.46 2162.39 934.92C2164.22 931.361 2166.82 928.587 2170.18 926.598C2173.54 924.589 2177.53 923.585 2182.17 923.585C2186.17 923.585 2189.67 924.311 2192.67 925.763C2195.67 927.214 2198.05 929.253 2199.8 931.878C2201.55 934.503 2202.51 937.585 2202.69 941.125H2190.7C2190.36 938.838 2189.47 936.999 2188.01 935.607C2186.58 934.195 2184.7 933.489 2182.38 933.489C2180.41 933.489 2178.69 934.026 2177.22 935.099C2175.76 936.153 2174.63 937.695 2173.82 939.723C2173 941.751 2172.59 944.207 2172.59 947.091C2172.59 950.014 2172.99 952.5 2173.79 954.548C2174.6 956.597 2175.74 958.158 2177.22 959.232C2178.69 960.305 2180.41 960.842 2182.38 960.842C2183.83 960.842 2185.13 960.544 2186.28 959.947C2187.46 959.351 2188.42 958.486 2189.18 957.352C2189.95 956.199 2190.46 954.817 2190.7 953.206H2202.69C2202.49 956.706 2201.54 959.788 2199.83 962.453C2198.14 965.098 2195.8 967.166 2192.82 968.658C2189.83 970.149 2186.3 970.895 2182.23 970.895ZM2222.34 956.815L2222.37 941.572H2224.22L2238.9 924.182H2253.48L2233.77 947.21H2230.75L2222.34 956.815ZM2210.83 970V908.909H2223.53V970H2210.83ZM2239.46 970L2225.98 950.044L2234.45 941.065L2254.35 970H2239.46ZM2279.4 908.909H2295.33L2312.15 949.955H2312.87L2329.69 908.909H2345.62V970H2333.09V930.237H2332.58L2316.77 969.702H2308.24L2292.43 930.088H2291.93V970H2279.4V908.909ZM2410.16 930.297H2397.1C2396.86 928.607 2396.37 927.105 2395.64 925.793C2394.9 924.46 2393.96 923.327 2392.8 922.392C2391.65 921.457 2390.32 920.741 2388.8 920.244C2387.31 919.747 2385.69 919.499 2383.94 919.499C2380.78 919.499 2378.03 920.284 2375.68 921.855C2373.33 923.406 2371.51 925.673 2370.22 928.656C2368.93 931.619 2368.28 935.219 2368.28 939.455C2368.28 943.81 2368.93 947.469 2370.22 950.432C2371.53 953.395 2373.36 955.632 2375.71 957.143C2378.06 958.655 2380.77 959.411 2383.85 959.411C2385.58 959.411 2387.18 959.182 2388.66 958.724C2390.15 958.267 2391.47 957.601 2392.62 956.726C2393.78 955.831 2394.73 954.747 2395.49 953.474C2396.26 952.202 2396.8 950.75 2397.1 949.119L2410.16 949.179C2409.82 951.983 2408.98 954.688 2407.63 957.293C2406.29 959.878 2404.5 962.195 2402.23 964.243C2399.98 966.271 2397.3 967.882 2394.17 969.075C2391.07 970.249 2387.56 970.835 2383.64 970.835C2378.2 970.835 2373.32 969.602 2369.03 967.136C2364.75 964.67 2361.37 961.101 2358.89 956.428C2356.42 951.754 2355.19 946.097 2355.19 939.455C2355.19 932.793 2356.44 927.125 2358.95 922.452C2361.45 917.778 2364.85 914.219 2369.15 911.773C2373.44 909.307 2378.28 908.074 2383.64 908.074C2387.18 908.074 2390.47 908.571 2393.49 909.565C2396.53 910.56 2399.23 912.011 2401.57 913.92C2403.92 915.81 2405.83 918.126 2407.3 920.871C2408.79 923.615 2409.75 926.757 2410.16 930.297ZM2419.42 970V908.909H2443.53C2448.16 908.909 2452.11 909.794 2455.37 911.564C2458.63 913.314 2461.12 915.75 2462.83 918.872C2464.56 921.974 2465.42 925.554 2465.42 929.611C2465.42 933.668 2464.55 937.247 2462.8 940.349C2461.05 943.452 2458.51 945.868 2455.19 947.598C2451.89 949.328 2447.89 950.193 2443.2 950.193H2427.84V939.842H2441.11C2443.6 939.842 2445.65 939.415 2447.26 938.56C2448.89 937.685 2450.1 936.482 2450.9 934.95C2451.71 933.399 2452.12 931.619 2452.12 929.611C2452.12 927.582 2451.71 925.812 2450.9 924.301C2450.1 922.77 2448.89 921.587 2447.26 920.751C2445.63 919.896 2443.56 919.469 2441.05 919.469H2432.34V970H2419.42ZM2493.25 970V908.909H2533.7V919.558H2506.17V934.115H2531.02V944.764H2506.17V970H2493.25ZM2541.41 970V924.182H2553.73V932.176H2554.21C2555.04 929.332 2556.45 927.185 2558.42 925.733C2560.38 924.261 2562.65 923.526 2565.22 923.526C2565.85 923.526 2566.54 923.565 2567.28 923.645C2568.01 923.724 2568.66 923.834 2569.21 923.973V935.249C2568.62 935.07 2567.79 934.911 2566.74 934.771C2565.68 934.632 2564.72 934.562 2563.84 934.562C2561.98 934.562 2560.3 934.97 2558.83 935.786C2557.38 936.581 2556.23 937.695 2555.37 939.126C2554.54 940.558 2554.12 942.209 2554.12 944.078V970H2541.41ZM2587.54 970.865C2584.61 970.865 2582.01 970.358 2579.72 969.344C2577.43 968.31 2575.62 966.788 2574.29 964.78C2572.98 962.751 2572.32 960.226 2572.32 957.203C2572.32 954.658 2572.79 952.52 2573.73 950.79C2574.66 949.06 2575.93 947.668 2577.54 946.614C2579.15 945.56 2580.98 944.764 2583.03 944.227C2585.1 943.69 2587.27 943.312 2589.54 943.094C2592.2 942.815 2594.35 942.557 2595.98 942.318C2597.61 942.06 2598.79 941.682 2599.53 941.185C2600.26 940.687 2600.63 939.952 2600.63 938.977V938.798C2600.63 936.909 2600.04 935.447 2598.84 934.413C2597.67 933.379 2596 932.862 2593.83 932.862C2591.54 932.862 2589.72 933.369 2588.37 934.384C2587.02 935.378 2586.12 936.631 2585.69 938.142L2573.93 937.188C2574.53 934.403 2575.7 931.997 2577.45 929.969C2579.2 927.92 2581.46 926.349 2584.23 925.256C2587.01 924.142 2590.23 923.585 2593.89 923.585C2596.44 923.585 2598.87 923.884 2601.2 924.48C2603.55 925.077 2605.62 926.001 2607.43 927.254C2609.26 928.507 2610.7 930.118 2611.76 932.087C2612.81 934.036 2613.34 936.372 2613.34 939.097V970H2601.29V963.646H2600.93C2600.19 965.078 2599.21 966.341 2597.98 967.435C2596.74 968.509 2595.26 969.354 2593.53 969.97C2591.8 970.567 2589.8 970.865 2587.54 970.865ZM2591.18 962.095C2593.05 962.095 2594.7 961.727 2596.13 960.991C2597.56 960.236 2598.68 959.222 2599.5 957.949C2600.31 956.676 2600.72 955.234 2600.72 953.624V948.761C2600.32 949.02 2599.78 949.259 2599.08 949.477C2598.4 949.676 2597.64 949.865 2596.78 950.044C2595.93 950.203 2595.07 950.352 2594.22 950.491C2593.36 950.611 2592.59 950.72 2591.89 950.82C2590.4 951.038 2589.1 951.386 2587.98 951.864C2586.87 952.341 2586.01 952.987 2585.39 953.803C2584.77 954.598 2584.46 955.592 2584.46 956.786C2584.46 958.516 2585.09 959.838 2586.34 960.753C2587.62 961.648 2589.23 962.095 2591.18 962.095ZM2623.2 970V924.182H2635.31V932.266H2635.85C2636.8 929.581 2638.39 927.463 2640.62 925.912C2642.85 924.361 2645.51 923.585 2648.61 923.585C2651.75 923.585 2654.43 924.371 2656.64 925.942C2658.84 927.493 2660.32 929.601 2661.05 932.266H2661.53C2662.46 929.641 2664.15 927.543 2666.6 925.972C2669.07 924.381 2671.98 923.585 2675.34 923.585C2679.62 923.585 2683.09 924.947 2685.75 927.672C2688.44 930.376 2689.78 934.214 2689.78 939.186V970H2677.1V941.692C2677.1 939.146 2676.42 937.237 2675.07 935.964C2673.72 934.692 2672.03 934.055 2670 934.055C2667.69 934.055 2665.89 934.791 2664.6 936.263C2663.31 937.714 2662.66 939.634 2662.66 942.02V970H2650.34V941.423C2650.34 939.176 2649.7 937.386 2648.4 936.054C2647.13 934.722 2645.45 934.055 2643.36 934.055C2641.95 934.055 2640.68 934.413 2639.54 935.129C2638.43 935.825 2637.55 936.81 2636.89 938.082C2636.23 939.335 2635.91 940.807 2635.91 942.497V970H2623.2ZM2720.7 970.895C2715.98 970.895 2711.93 969.94 2708.53 968.031C2705.14 966.102 2702.54 963.378 2700.71 959.858C2698.88 956.318 2697.97 952.132 2697.97 947.3C2697.97 942.587 2698.88 938.45 2700.71 934.891C2702.54 931.331 2705.11 928.557 2708.44 926.568C2711.78 924.58 2715.69 923.585 2720.19 923.585C2723.21 923.585 2726.03 924.072 2728.63 925.047C2731.26 926.001 2733.54 927.443 2735.49 929.372C2737.46 931.301 2738.99 933.727 2740.09 936.651C2741.18 939.554 2741.73 942.955 2741.73 946.852V950.342H2703.04V942.467H2729.76C2729.76 940.638 2729.37 939.017 2728.57 937.605C2727.78 936.193 2726.67 935.089 2725.26 934.294C2723.87 933.479 2722.25 933.071 2720.4 933.071C2718.47 933.071 2716.76 933.518 2715.27 934.413C2713.8 935.288 2712.64 936.472 2711.81 937.963C2710.97 939.435 2710.54 941.075 2710.52 942.885V950.372C2710.52 952.639 2710.94 954.598 2711.78 956.249C2712.63 957.899 2713.84 959.172 2715.39 960.067C2716.94 960.962 2718.78 961.409 2720.9 961.409C2722.32 961.409 2723.61 961.21 2724.78 960.812C2725.96 960.415 2726.96 959.818 2727.8 959.023C2728.63 958.227 2729.27 957.253 2729.7 956.099L2741.46 956.875C2740.86 959.699 2739.64 962.165 2737.79 964.273C2735.96 966.361 2733.59 967.991 2730.69 969.165C2727.81 970.318 2724.47 970.895 2720.7 970.895ZM2758.73 970L2746.26 924.182H2759.12L2766.22 954.966H2766.63L2774.03 924.182H2786.65L2794.17 954.787H2794.55L2801.53 924.182H2814.36L2801.92 970H2788.47L2780.59 941.185H2780.03L2772.15 970H2758.73ZM2840.69 970.895C2836.06 970.895 2832.05 969.911 2828.67 967.942C2825.31 965.953 2822.72 963.189 2820.89 959.649C2819.06 956.089 2818.14 951.963 2818.14 947.27C2818.14 942.537 2819.06 938.401 2820.89 934.861C2822.72 931.301 2825.31 928.537 2828.67 926.568C2832.05 924.58 2836.06 923.585 2840.69 923.585C2845.33 923.585 2849.32 924.58 2852.68 926.568C2856.06 928.537 2858.67 931.301 2860.5 934.861C2862.33 938.401 2863.24 942.537 2863.24 947.27C2863.24 951.963 2862.33 956.089 2860.5 959.649C2858.67 963.189 2856.06 965.953 2852.68 967.942C2849.32 969.911 2845.33 970.895 2840.69 970.895ZM2840.75 961.051C2842.86 961.051 2844.62 960.455 2846.03 959.261C2847.44 958.048 2848.51 956.398 2849.22 954.31C2849.96 952.222 2850.33 949.845 2850.33 947.18C2850.33 944.516 2849.96 942.139 2849.22 940.051C2848.51 937.963 2847.44 936.312 2846.03 935.099C2844.62 933.886 2842.86 933.28 2840.75 933.28C2838.62 933.28 2836.83 933.886 2835.38 935.099C2833.95 936.312 2832.87 937.963 2832.13 940.051C2831.42 942.139 2831.06 944.516 2831.06 947.18C2831.06 949.845 2831.42 952.222 2832.13 954.31C2832.87 956.398 2833.95 958.048 2835.38 959.261C2836.83 960.455 2838.62 961.051 2840.75 961.051ZM2871.51 970V924.182H2883.83V932.176H2884.3C2885.14 929.332 2886.54 927.185 2888.51 925.733C2890.48 924.261 2892.75 923.526 2895.31 923.526C2895.95 923.526 2896.63 923.565 2897.37 923.645C2898.1 923.724 2898.75 923.834 2899.31 923.973V935.249C2898.71 935.07 2897.89 934.911 2896.83 934.771C2895.78 934.632 2894.81 934.562 2893.94 934.562C2892.07 934.562 2890.4 934.97 2888.93 935.786C2887.48 936.581 2886.32 937.695 2885.47 939.126C2884.63 940.558 2884.21 942.209 2884.21 944.078V970H2871.51ZM2917.39 956.815L2917.42 941.572H2919.27L2933.95 924.182H2948.53L2928.82 947.21H2925.8L2917.39 956.815ZM2905.88 970V908.909H2918.59V970H2905.88ZM2934.51 970L2921.03 950.044L2929.5 941.065L2949.4 970H2934.51Z" fill="white"/>
<defs>
<clipPath id="clip0_618_2">
<rect width="480" height="480" fill="white" transform="translate(1165 330)"/>
</clipPath>
</defs>
</svg>
