<svg width="7674" height="1333" viewBox="0 0 7674 1333" fill="none" xmlns="http://www.w3.org/2000/svg">
<rect width="7674" height="1333" fill="black"/>
<path d="M3392.5 575.5C3392.5 548.167 3389 528.5 3382 516.5C3375.33 504.167 3362.67 498 3344 498C3337.33 498 3330 498.5 3322 499.5C3314 500.5 3308 501.333 3304 502V713H3243.5V460C3255.17 456.667 3270.33 453.5 3289 450.5C3308 447.5 3328 446 3349 446C3367 446 3381.67 448.333 3393 453C3404.67 457.667 3414.33 463.833 3422 471.5C3425.67 468.833 3430.33 466 3436 463C3441.67 460 3448 457.333 3455 455C3462 452.333 3469.33 450.167 3477 448.5C3485 446.833 3493 446 3501 446C3521.33 446 3538 449 3551 455C3564.33 460.667 3574.67 468.833 3582 479.5C3589.67 489.833 3594.83 502.5 3597.5 517.5C3600.5 532.167 3602 548.333 3602 566V713H3541.5V575.5C3541.5 548.167 3538.17 528.5 3531.5 516.5C3524.83 504.167 3512 498 3493 498C3483.33 498 3474.17 499.667 3465.5 503C3456.83 506 3450.33 509 3446 512C3448.67 520.333 3450.5 529.167 3451.5 538.5C3452.5 547.833 3453 557.833 3453 568.5V713H3392.5V575.5ZM3651.62 582.5C3651.62 563.167 3654.62 545.167 3660.62 528.5C3666.62 511.5 3675.12 496.833 3686.12 484.5C3697.45 472.167 3711.12 462.5 3727.12 455.5C3743.12 448.5 3761.12 445 3781.12 445C3805.78 445 3829.12 449.5 3851.12 458.5L3838.12 508C3831.12 505 3823.12 502.5 3814.12 500.5C3805.45 498.5 3796.12 497.5 3786.12 497.5C3762.45 497.5 3744.45 505 3732.12 520C3719.78 534.667 3713.62 555.5 3713.62 582.5C3713.62 608.5 3719.45 629.167 3731.12 644.5C3742.78 659.5 3762.45 667 3790.12 667C3800.45 667 3810.62 666 3820.62 664C3830.62 662 3839.28 659.5 3846.62 656.5L3855.12 706.5C3848.45 709.833 3838.28 712.833 3824.62 715.5C3811.28 718.167 3797.45 719.5 3783.12 719.5C3760.78 719.5 3741.28 716.167 3724.62 709.5C3708.28 702.5 3694.62 693 3683.62 681C3672.95 668.667 3664.95 654.167 3659.62 637.5C3654.28 620.5 3651.62 602.167 3651.62 582.5ZM4065.46 583.5C4065.46 556.5 4059.29 535.5 4046.96 520.5C4034.96 505.5 4015.46 498 3988.46 498C3982.79 498 3976.79 498.333 3970.46 499C3964.46 499.333 3958.46 500.333 3952.46 502V651.5C3957.79 655.167 3964.79 658.667 3973.46 662C3982.46 665 3991.96 666.5 4001.96 666.5C4023.96 666.5 4039.96 659 4049.96 644C4060.29 629 4065.46 608.833 4065.46 583.5ZM4127.46 582.5C4127.46 602.5 4124.79 620.833 4119.46 637.5C4114.46 654.167 4107.12 668.5 4097.46 680.5C4087.79 692.5 4075.62 701.833 4060.96 708.5C4046.62 715.167 4030.29 718.5 4011.96 718.5C3999.62 718.5 3988.29 717 3977.96 714C3967.62 711 3959.12 707.667 3952.46 704V805.5H3891.96V460C3904.29 456.667 3919.46 453.5 3937.46 450.5C3955.46 447.5 3974.46 446 3994.46 446C4015.12 446 4033.62 449.167 4049.96 455.5C4066.29 461.833 4080.12 471 4091.46 483C4103.12 494.667 4111.96 509 4117.96 526C4124.29 542.667 4127.46 561.5 4127.46 582.5ZM4152.81 542.5H4287.31V598H4152.81V542.5ZM4542.02 705C4530.36 708 4515.19 711 4496.52 714C4477.86 717.333 4457.36 719 4435.02 719C4414.02 719 4396.36 716 4382.02 710C4368.02 704 4356.69 695.667 4348.02 685C4339.69 674.333 4333.69 661.667 4330.02 647C4326.36 632 4324.52 615.667 4324.52 598V451.5H4385.02V588.5C4385.02 616.5 4389.02 636.5 4397.02 648.5C4405.36 660.5 4419.69 666.5 4440.02 666.5C4447.36 666.5 4455.02 666.167 4463.02 665.5C4471.36 664.833 4477.52 664 4481.52 663V451.5H4542.02V705ZM4674.53 669.5C4690.53 669.5 4702.19 667.667 4709.53 664C4716.86 660 4720.53 653.333 4720.53 644C4720.53 635.333 4716.53 628.167 4708.53 622.5C4700.86 616.833 4688.03 610.667 4670.03 604C4659.03 600 4648.86 595.833 4639.53 591.5C4630.53 586.833 4622.69 581.5 4616.03 575.5C4609.36 569.5 4604.03 562.333 4600.03 554C4596.36 545.333 4594.53 534.833 4594.53 522.5C4594.53 498.5 4603.36 479.667 4621.03 466C4638.69 452 4662.69 445 4693.03 445C4708.36 445 4723.03 446.5 4737.03 449.5C4751.03 452.167 4761.53 454.833 4768.53 457.5L4757.53 506.5C4750.86 503.5 4742.36 500.833 4732.03 498.5C4721.69 495.833 4709.69 494.5 4696.03 494.5C4683.69 494.5 4673.69 496.667 4666.03 501C4658.36 505 4654.53 511.333 4654.53 520C4654.53 524.333 4655.19 528.167 4656.53 531.5C4658.19 534.833 4660.86 538 4664.53 541C4668.19 543.667 4673.03 546.5 4679.03 549.5C4685.03 552.167 4692.36 555 4701.03 558C4715.36 563.333 4727.53 568.667 4737.53 574C4747.53 579 4755.69 584.833 4762.03 591.5C4768.69 597.833 4773.53 605.167 4776.53 613.5C4779.53 621.833 4781.03 631.833 4781.03 643.5C4781.03 668.5 4771.69 687.5 4753.03 700.5C4734.69 713.167 4708.36 719.5 4674.03 719.5C4651.03 719.5 4632.53 717.5 4618.53 713.5C4604.53 709.833 4594.69 706.833 4589.03 704.5L4599.53 654C4608.53 657.667 4619.19 661.167 4631.53 664.5C4644.19 667.833 4658.53 669.5 4674.53 669.5ZM4813.04 583.5C4813.04 560.5 4816.38 540.333 4823.04 523C4830.04 505.667 4839.21 491.333 4850.54 480C4861.88 468.333 4874.88 459.667 4889.54 454C4904.21 448 4919.21 445 4934.54 445C4970.54 445 4998.54 456.167 5018.54 478.5C5038.88 500.833 5049.04 534.167 5049.04 578.5C5049.04 581.833 5048.88 585.667 5048.54 590C5048.54 594 5048.38 597.667 5048.04 601H4875.54C4877.21 622 4884.54 638.333 4897.54 650C4910.88 661.333 4930.04 667 4955.04 667C4969.71 667 4983.04 665.667 4995.04 663C5007.38 660.333 5017.04 657.5 5024.04 654.5L5032.04 704C5028.71 705.667 5024.04 707.5 5018.04 709.5C5012.38 711.167 5005.71 712.667 4998.04 714C4990.71 715.667 4982.71 717 4974.04 718C4965.38 719 4956.54 719.5 4947.54 719.5C4924.54 719.5 4904.54 716.167 4887.54 709.5C4870.54 702.5 4856.54 693 4845.54 681C4834.54 668.667 4826.38 654.333 4821.04 638C4815.71 621.333 4813.04 603.167 4813.04 583.5ZM4988.54 556.5C4988.54 548.167 4987.38 540.333 4985.04 533C4982.71 525.333 4979.21 518.833 4974.54 513.5C4970.21 507.833 4964.71 503.5 4958.04 500.5C4951.71 497.167 4944.04 495.5 4935.04 495.5C4925.71 495.5 4917.54 497.333 4910.54 501C4903.54 504.333 4897.54 508.833 4892.54 514.5C4887.88 520.167 4884.21 526.667 4881.54 534C4878.88 541.333 4877.04 548.833 4876.04 556.5H4988.54Z" fill="white"/>
<g clip-path="url(#clip0_618_2)">
<path d="M2700.7 330C2756.86 330 2802.39 375.702 2802.39 432.079C2802.39 456.557 2801.07 482.071 2811.23 504.344L2818.81 520.989C2832.84 551.756 2857.49 576.431 2888.25 590.482L2902.51 596.996C2925.54 607.516 2951.99 605.841 2977.3 605.841C3033.47 605.841 3079 651.544 3079 707.921C3079 764.297 3033.47 810 2977.3 810C2921.14 810 2875.61 764.297 2875.61 707.921C2875.61 684.218 2876.67 659.551 2866.83 637.986L2858.76 620.284C2844.71 589.478 2820 564.782 2789.19 550.742L2771.96 542.888C2749.99 532.878 2724.83 534.159 2700.7 534.159C2644.53 534.159 2599 488.456 2599 432.079C2599 375.702 2644.53 330 2700.7 330Z" fill="white"/>
<path d="M2695.41 810.001C2748.65 810.001 2791.82 766.837 2791.82 713.592C2791.82 660.347 2748.65 617.184 2695.41 617.184C2642.16 617.184 2599 660.347 2599 713.592C2599 766.837 2642.16 810.001 2695.41 810.001Z" fill="white"/>
<path d="M3079 426.408C3079 479.653 3035.84 522.817 2982.59 522.817C2929.35 522.817 2886.18 479.653 2886.18 426.408C2886.18 373.163 2929.35 330 2982.59 330C3035.84 330 3079 373.163 3079 426.408Z" fill="white"/>
</g>
<path d="M3295.61 970V908.909H3336.06V919.558H3308.53V934.115H3333.38V944.764H3308.53V970H3295.61ZM3371.02 950.491V924.182H3383.73V970H3371.53V961.678H3371.05C3370.02 964.362 3368.3 966.52 3365.89 968.151C3363.5 969.781 3360.59 970.597 3357.15 970.597C3354.09 970.597 3351.39 969.901 3349.07 968.509C3346.74 967.116 3344.92 965.138 3343.61 962.572C3342.32 960.007 3341.66 956.935 3341.64 953.355V924.182H3354.35V951.088C3354.37 953.793 3355.09 955.93 3356.52 957.501C3357.96 959.072 3359.88 959.858 3362.28 959.858C3363.81 959.858 3365.24 959.51 3366.58 958.814C3367.91 958.098 3368.98 957.044 3369.8 955.652C3370.63 954.26 3371.04 952.54 3371.02 950.491ZM3406.6 908.909V970H3393.89V908.909H3406.6ZM3429.49 908.909V970H3416.78V908.909H3429.49ZM3492.49 926.479C3492.25 924.072 3491.22 922.203 3489.41 920.871C3487.61 919.538 3485.15 918.872 3482.05 918.872C3479.94 918.872 3478.16 919.17 3476.71 919.767C3475.26 920.344 3474.14 921.149 3473.37 922.183C3472.61 923.217 3472.23 924.391 3472.23 925.703C3472.19 926.797 3472.42 927.751 3472.92 928.567C3473.44 929.382 3474.14 930.088 3475.04 930.685C3475.93 931.261 3476.97 931.768 3478.14 932.206C3479.31 932.624 3480.57 932.982 3481.9 933.28L3487.39 934.592C3490.05 935.189 3492.5 935.984 3494.72 936.979C3496.95 937.973 3498.88 939.196 3500.51 940.648C3502.14 942.099 3503.41 943.81 3504.3 945.778C3505.21 947.747 3505.68 950.004 3505.7 952.55C3505.68 956.288 3504.73 959.53 3502.84 962.274C3500.97 964.999 3498.26 967.116 3494.72 968.628C3491.2 970.119 3486.96 970.865 3481.99 970.865C3477.06 970.865 3472.76 970.109 3469.1 968.598C3465.46 967.087 3462.62 964.849 3460.57 961.886C3458.54 958.903 3457.48 955.214 3457.38 950.82H3469.88C3470.02 952.868 3470.6 954.578 3471.64 955.95C3472.69 957.303 3474.09 958.327 3475.84 959.023C3477.61 959.699 3479.61 960.037 3481.84 960.037C3484.03 960.037 3485.92 959.719 3487.54 959.082C3489.17 958.446 3490.43 957.561 3491.32 956.428C3492.22 955.294 3492.67 953.991 3492.67 952.52C3492.67 951.148 3492.26 949.994 3491.44 949.06C3490.65 948.125 3489.47 947.33 3487.92 946.673C3486.39 946.017 3484.51 945.42 3482.29 944.884L3475.63 943.213C3470.48 941.96 3466.42 940.001 3463.43 937.337C3460.45 934.672 3458.97 931.082 3458.99 926.568C3458.97 922.869 3459.95 919.638 3461.94 916.874C3463.95 914.109 3466.7 911.952 3470.2 910.401C3473.7 908.849 3477.68 908.074 3482.14 908.074C3486.67 908.074 3490.63 908.849 3494.01 910.401C3497.41 911.952 3500.05 914.109 3501.94 916.874C3503.83 919.638 3504.81 922.839 3504.87 926.479H3492.49ZM3538.52 924.182V933.727H3510.93V924.182H3538.52ZM3517.19 913.205H3529.9V955.92C3529.9 957.094 3530.08 958.009 3530.44 958.665C3530.8 959.301 3531.29 959.749 3531.93 960.007C3532.59 960.266 3533.34 960.395 3534.2 960.395C3534.79 960.395 3535.39 960.345 3535.99 960.246C3536.58 960.126 3537.04 960.037 3537.36 959.977L3539.36 969.433C3538.72 969.632 3537.83 969.861 3536.67 970.119C3535.52 970.398 3534.12 970.567 3532.47 970.626C3529.4 970.746 3526.72 970.338 3524.41 969.403C3522.13 968.469 3520.35 967.017 3519.07 965.048C3517.8 963.08 3517.17 960.594 3517.19 957.591V913.205ZM3559.86 970.865C3556.94 970.865 3554.34 970.358 3552.05 969.344C3549.76 968.31 3547.95 966.788 3546.62 964.78C3545.31 962.751 3544.65 960.226 3544.65 957.203C3544.65 954.658 3545.12 952.52 3546.05 950.79C3546.99 949.06 3548.26 947.668 3549.87 946.614C3551.48 945.56 3553.31 944.764 3555.36 944.227C3557.43 943.69 3559.6 943.312 3561.86 943.094C3564.53 942.815 3566.68 942.557 3568.31 942.318C3569.94 942.06 3571.12 941.682 3571.86 941.185C3572.59 940.687 3572.96 939.952 3572.96 938.977V938.798C3572.96 936.909 3572.36 935.447 3571.17 934.413C3570 933.379 3568.33 932.862 3566.16 932.862C3563.87 932.862 3562.05 933.369 3560.7 934.384C3559.35 935.378 3558.45 936.631 3558.02 938.142L3546.26 937.188C3546.86 934.403 3548.03 931.997 3549.78 929.969C3551.53 927.92 3553.79 926.349 3556.55 925.256C3559.34 924.142 3562.56 923.585 3566.22 923.585C3568.76 923.585 3571.2 923.884 3573.53 924.48C3575.87 925.077 3577.95 926.001 3579.76 927.254C3581.59 928.507 3583.03 930.118 3584.09 932.087C3585.14 934.036 3585.67 936.372 3585.67 939.097V970H3573.62V963.646H3573.26C3572.52 965.078 3571.54 966.341 3570.31 967.435C3569.07 968.509 3567.59 969.354 3565.86 969.97C3564.13 970.567 3562.13 970.865 3559.86 970.865ZM3563.5 962.095C3565.37 962.095 3567.02 961.727 3568.46 960.991C3569.89 960.236 3571.01 959.222 3571.83 957.949C3572.64 956.676 3573.05 955.234 3573.05 953.624V948.761C3572.65 949.02 3572.1 949.259 3571.41 949.477C3570.73 949.676 3569.97 949.865 3569.11 950.044C3568.26 950.203 3567.4 950.352 3566.55 950.491C3565.69 950.611 3564.92 950.72 3564.22 950.82C3562.73 951.038 3561.43 951.386 3560.31 951.864C3559.2 952.341 3558.33 952.987 3557.72 953.803C3557.1 954.598 3556.79 955.592 3556.79 956.786C3556.79 958.516 3557.42 959.838 3558.67 960.753C3559.94 961.648 3561.56 962.095 3563.5 962.095ZM3616.23 970.895C3611.53 970.895 3607.5 969.901 3604.12 967.912C3600.76 965.903 3598.17 963.119 3596.36 959.56C3594.57 956 3593.68 951.903 3593.68 947.27C3593.68 942.577 3594.58 938.46 3596.39 934.92C3598.22 931.361 3600.82 928.587 3604.18 926.598C3607.54 924.589 3611.53 923.585 3616.17 923.585C3620.17 923.585 3623.67 924.311 3626.67 925.763C3629.67 927.214 3632.05 929.253 3633.8 931.878C3635.55 934.503 3636.51 937.585 3636.69 941.125H3624.7C3624.36 938.838 3623.47 936.999 3622.01 935.607C3620.58 934.195 3618.7 933.489 3616.38 933.489C3614.41 933.489 3612.69 934.026 3611.22 935.099C3609.76 936.153 3608.63 937.695 3607.82 939.723C3607 941.751 3606.59 944.207 3606.59 947.091C3606.59 950.014 3606.99 952.5 3607.79 954.548C3608.6 956.597 3609.74 958.158 3611.22 959.232C3612.69 960.305 3614.41 960.842 3616.38 960.842C3617.83 960.842 3619.13 960.544 3620.28 959.947C3621.46 959.351 3622.42 958.486 3623.18 957.352C3623.95 956.199 3624.46 954.817 3624.7 953.206H3636.69C3636.49 956.706 3635.54 959.788 3633.83 962.453C3632.14 965.098 3629.8 967.166 3626.82 968.658C3623.83 970.149 3620.3 970.895 3616.23 970.895ZM3656.34 956.815L3656.37 941.572H3658.22L3672.9 924.182H3687.48L3667.77 947.21H3664.75L3656.34 956.815ZM3644.83 970V908.909H3657.53V970H3644.83ZM3673.46 970L3659.98 950.044L3668.45 941.065L3688.35 970H3673.46ZM3713.4 908.909H3729.33L3746.15 949.955H3746.87L3763.69 908.909H3779.62V970H3767.09V930.237H3766.58L3750.77 969.702H3742.24L3726.43 930.088H3725.93V970H3713.4V908.909ZM3844.16 930.297H3831.1C3830.86 928.607 3830.37 927.105 3829.64 925.793C3828.9 924.46 3827.96 923.327 3826.8 922.392C3825.65 921.457 3824.32 920.741 3822.8 920.244C3821.31 919.747 3819.69 919.499 3817.94 919.499C3814.78 919.499 3812.03 920.284 3809.68 921.855C3807.33 923.406 3805.51 925.673 3804.22 928.656C3802.93 931.619 3802.28 935.219 3802.28 939.455C3802.28 943.81 3802.93 947.469 3804.22 950.432C3805.53 953.395 3807.36 955.632 3809.71 957.143C3812.06 958.655 3814.77 959.411 3817.85 959.411C3819.58 959.411 3821.18 959.182 3822.66 958.724C3824.15 958.267 3825.47 957.601 3826.62 956.726C3827.78 955.831 3828.73 954.747 3829.49 953.474C3830.26 952.202 3830.8 950.75 3831.1 949.119L3844.16 949.179C3843.82 951.983 3842.98 954.688 3841.63 957.293C3840.29 959.878 3838.5 962.195 3836.23 964.243C3833.98 966.271 3831.3 967.882 3828.17 969.075C3825.07 970.249 3821.56 970.835 3817.64 970.835C3812.2 970.835 3807.32 969.602 3803.03 967.136C3798.75 964.67 3795.37 961.101 3792.89 956.428C3790.42 951.754 3789.19 946.097 3789.19 939.455C3789.19 932.793 3790.44 927.125 3792.95 922.452C3795.45 917.778 3798.85 914.219 3803.15 911.773C3807.44 909.307 3812.28 908.074 3817.64 908.074C3821.18 908.074 3824.47 908.571 3827.49 909.565C3830.53 910.56 3833.23 912.011 3835.57 913.92C3837.92 915.81 3839.83 918.126 3841.3 920.871C3842.79 923.615 3843.75 926.757 3844.16 930.297ZM3853.42 970V908.909H3877.53C3882.16 908.909 3886.11 909.794 3889.37 911.564C3892.63 913.314 3895.12 915.75 3896.83 918.872C3898.56 921.974 3899.42 925.554 3899.42 929.611C3899.42 933.668 3898.55 937.247 3896.8 940.349C3895.05 943.452 3892.51 945.868 3889.19 947.598C3885.89 949.328 3881.89 950.193 3877.2 950.193H3861.84V939.842H3875.11C3877.6 939.842 3879.65 939.415 3881.26 938.56C3882.89 937.685 3884.1 936.482 3884.9 934.95C3885.71 933.399 3886.12 931.619 3886.12 929.611C3886.12 927.582 3885.71 925.812 3884.9 924.301C3884.1 922.77 3882.89 921.587 3881.26 920.751C3879.63 919.896 3877.56 919.469 3875.05 919.469H3866.34V970H3853.42ZM3927.25 970V908.909H3967.7V919.558H3940.17V934.115H3965.02V944.764H3940.17V970H3927.25ZM3975.41 970V924.182H3987.73V932.176H3988.21C3989.04 929.332 3990.45 927.185 3992.42 925.733C3994.38 924.261 3996.65 923.526 3999.22 923.526C3999.85 923.526 4000.54 923.565 4001.28 923.645C4002.01 923.724 4002.66 923.834 4003.21 923.973V935.249C4002.62 935.07 4001.79 934.911 4000.74 934.771C3999.68 934.632 3998.72 934.562 3997.84 934.562C3995.98 934.562 3994.3 934.97 3992.83 935.786C3991.38 936.581 3990.23 937.695 3989.37 939.126C3988.54 940.558 3988.12 942.209 3988.12 944.078V970H3975.41ZM4021.54 970.865C4018.61 970.865 4016.01 970.358 4013.72 969.344C4011.43 968.31 4009.62 966.788 4008.29 964.78C4006.98 962.751 4006.32 960.226 4006.32 957.203C4006.32 954.658 4006.79 952.52 4007.73 950.79C4008.66 949.06 4009.93 947.668 4011.54 946.614C4013.15 945.56 4014.98 944.764 4017.03 944.227C4019.1 943.69 4021.27 943.312 4023.54 943.094C4026.2 942.815 4028.35 942.557 4029.98 942.318C4031.61 942.06 4032.79 941.682 4033.53 941.185C4034.26 940.687 4034.63 939.952 4034.63 938.977V938.798C4034.63 936.909 4034.04 935.447 4032.84 934.413C4031.67 933.379 4030 932.862 4027.83 932.862C4025.54 932.862 4023.72 933.369 4022.37 934.384C4021.02 935.378 4020.12 936.631 4019.69 938.142L4007.93 937.188C4008.53 934.403 4009.7 931.997 4011.45 929.969C4013.2 927.92 4015.46 926.349 4018.23 925.256C4021.01 924.142 4024.23 923.585 4027.89 923.585C4030.44 923.585 4032.87 923.884 4035.2 924.48C4037.55 925.077 4039.62 926.001 4041.43 927.254C4043.26 928.507 4044.7 930.118 4045.76 932.087C4046.81 934.036 4047.34 936.372 4047.34 939.097V970H4035.29V963.646H4034.93C4034.19 965.078 4033.21 966.341 4031.98 967.435C4030.74 968.509 4029.26 969.354 4027.53 969.97C4025.8 970.567 4023.8 970.865 4021.54 970.865ZM4025.18 962.095C4027.05 962.095 4028.7 961.727 4030.13 960.991C4031.56 960.236 4032.68 959.222 4033.5 957.949C4034.31 956.676 4034.72 955.234 4034.72 953.624V948.761C4034.32 949.02 4033.78 949.259 4033.08 949.477C4032.4 949.676 4031.64 949.865 4030.78 950.044C4029.93 950.203 4029.07 950.352 4028.22 950.491C4027.36 950.611 4026.59 950.72 4025.89 950.82C4024.4 951.038 4023.1 951.386 4021.98 951.864C4020.87 952.341 4020.01 952.987 4019.39 953.803C4018.77 954.598 4018.46 955.592 4018.46 956.786C4018.46 958.516 4019.09 959.838 4020.34 960.753C4021.62 961.648 4023.23 962.095 4025.18 962.095ZM4057.2 970V924.182H4069.31V932.266H4069.85C4070.8 929.581 4072.39 927.463 4074.62 925.912C4076.85 924.361 4079.51 923.585 4082.61 923.585C4085.75 923.585 4088.43 924.371 4090.64 925.942C4092.84 927.493 4094.32 929.601 4095.05 932.266H4095.53C4096.46 929.641 4098.15 927.543 4100.6 925.972C4103.07 924.381 4105.98 923.585 4109.34 923.585C4113.62 923.585 4117.09 924.947 4119.75 927.672C4122.44 930.376 4123.78 934.214 4123.78 939.186V970H4111.1V941.692C4111.1 939.146 4110.42 937.237 4109.07 935.964C4107.72 934.692 4106.03 934.055 4104 934.055C4101.69 934.055 4099.89 934.791 4098.6 936.263C4097.31 937.714 4096.66 939.634 4096.66 942.02V970H4084.34V941.423C4084.34 939.176 4083.7 937.386 4082.4 936.054C4081.13 934.722 4079.45 934.055 4077.36 934.055C4075.95 934.055 4074.68 934.413 4073.54 935.129C4072.43 935.825 4071.55 936.81 4070.89 938.082C4070.23 939.335 4069.91 940.807 4069.91 942.497V970H4057.2ZM4154.7 970.895C4149.98 970.895 4145.93 969.94 4142.53 968.031C4139.14 966.102 4136.54 963.378 4134.71 959.858C4132.88 956.318 4131.97 952.132 4131.97 947.3C4131.97 942.587 4132.88 938.45 4134.71 934.891C4136.54 931.331 4139.11 928.557 4142.44 926.568C4145.78 924.58 4149.69 923.585 4154.19 923.585C4157.21 923.585 4160.03 924.072 4162.63 925.047C4165.26 926.001 4167.54 927.443 4169.49 929.372C4171.46 931.301 4172.99 933.727 4174.09 936.651C4175.18 939.554 4175.73 942.955 4175.73 946.852V950.342H4137.04V942.467H4163.76C4163.76 940.638 4163.37 939.017 4162.57 937.605C4161.78 936.193 4160.67 935.089 4159.26 934.294C4157.87 933.479 4156.25 933.071 4154.4 933.071C4152.47 933.071 4150.76 933.518 4149.27 934.413C4147.8 935.288 4146.64 936.472 4145.81 937.963C4144.97 939.435 4144.54 941.075 4144.52 942.885V950.372C4144.52 952.639 4144.94 954.598 4145.78 956.249C4146.63 957.899 4147.84 959.172 4149.39 960.067C4150.94 960.962 4152.78 961.409 4154.9 961.409C4156.32 961.409 4157.61 961.21 4158.78 960.812C4159.96 960.415 4160.96 959.818 4161.8 959.023C4162.63 958.227 4163.27 957.253 4163.7 956.099L4175.46 956.875C4174.86 959.699 4173.64 962.165 4171.79 964.273C4169.96 966.361 4167.59 967.991 4164.69 969.165C4161.81 970.318 4158.47 970.895 4154.7 970.895ZM4192.73 970L4180.26 924.182H4193.12L4200.22 954.966H4200.63L4208.03 924.182H4220.65L4228.17 954.787H4228.55L4235.53 924.182H4248.36L4235.92 970H4222.47L4214.59 941.185H4214.03L4206.15 970H4192.73ZM4274.69 970.895C4270.06 970.895 4266.05 969.911 4262.67 967.942C4259.31 965.953 4256.72 963.189 4254.89 959.649C4253.06 956.089 4252.14 951.963 4252.14 947.27C4252.14 942.537 4253.06 938.401 4254.89 934.861C4256.72 931.301 4259.31 928.537 4262.67 926.568C4266.05 924.58 4270.06 923.585 4274.69 923.585C4279.33 923.585 4283.32 924.58 4286.68 926.568C4290.06 928.537 4292.67 931.301 4294.5 934.861C4296.33 938.401 4297.24 942.537 4297.24 947.27C4297.24 951.963 4296.33 956.089 4294.5 959.649C4292.67 963.189 4290.06 965.953 4286.68 967.942C4283.32 969.911 4279.33 970.895 4274.69 970.895ZM4274.75 961.051C4276.86 961.051 4278.62 960.455 4280.03 959.261C4281.44 958.048 4282.51 956.398 4283.22 954.31C4283.96 952.222 4284.33 949.845 4284.33 947.18C4284.33 944.516 4283.96 942.139 4283.22 940.051C4282.51 937.963 4281.44 936.312 4280.03 935.099C4278.62 933.886 4276.86 933.28 4274.75 933.28C4272.62 933.28 4270.83 933.886 4269.38 935.099C4267.95 936.312 4266.87 937.963 4266.13 940.051C4265.42 942.139 4265.06 944.516 4265.06 947.18C4265.06 949.845 4265.42 952.222 4266.13 954.31C4266.87 956.398 4267.95 958.048 4269.38 959.261C4270.83 960.455 4272.62 961.051 4274.75 961.051ZM4305.51 970V924.182H4317.83V932.176H4318.3C4319.14 929.332 4320.54 927.185 4322.51 925.733C4324.48 924.261 4326.75 923.526 4329.31 923.526C4329.95 923.526 4330.63 923.565 4331.37 923.645C4332.1 923.724 4332.75 923.834 4333.31 923.973V935.249C4332.71 935.07 4331.89 934.911 4330.83 934.771C4329.78 934.632 4328.81 934.562 4327.94 934.562C4326.07 934.562 4324.4 934.97 4322.93 935.786C4321.48 936.581 4320.32 937.695 4319.47 939.126C4318.63 940.558 4318.21 942.209 4318.21 944.078V970H4305.51ZM4351.39 956.815L4351.42 941.572H4353.27L4367.95 924.182H4382.53L4362.82 947.21H4359.8L4351.39 956.815ZM4339.88 970V908.909H4352.59V970H4339.88ZM4368.51 970L4355.03 950.044L4363.5 941.065L4383.4 970H4368.51Z" fill="white"/>
<defs>
<clipPath id="clip0_618_2">
<rect width="480" height="480" fill="white" transform="translate(2599 330)"/>
</clipPath>
</defs>
</svg>
