<svg role="img" viewBox="0 0 24 24" xmlns="http://www.w3.org/2000/svg">
  <title>Clerk</title>
  <style>
    .c {
      fill: #9e9e9e;
    }
    @media (prefers-color-scheme: dark) {
      .c {
        fill: #bdbdbd;
      }
    }
  </style>
  <g transform="scale(0.1875)">
    <path
      class="c"
      d="M84 64C84 75.0457 75.0457 84 64 84C52.9543 84 44 75.0457 44 64C44 52.9543 52.9543 44 64 44C75.0457 44 84 52.9543 84 64Z"
    />
    <path
      class="c"
      d="M100.04 111.354C101.742 113.056 101.571 115.873 99.5716 117.212C89.3988 124.026 77.1635 128 63.9999 128C50.8363 128 38.6009 124.026 28.4282 117.212C26.4288 115.873 26.258 113.056 27.9596 111.354L42.5754 96.7382C43.8963 95.4172 45.9456 95.2086 47.6083 96.0604C52.5246 98.579 58.0963 100 63.9999 100C69.9035 100 75.4751 98.579 80.3915 96.0604C82.0542 95.2086 84.1034 95.4172 85.4244 96.7382L100.04 111.354Z"
    />
    <path
      class="c"
      d="M99.5716 10.788C101.571 12.1272 101.742 14.9444 100.04 16.646L85.4244 31.2618C84.1035 32.5828 82.0542 32.7914 80.3915 31.9397C75.4752 29.421 69.9035 28 64 28C44.1177 28 28 44.1177 28 64C28 69.9035 29.421 75.4752 31.9397 80.3915C32.7914 82.0542 32.5828 84.1035 31.2618 85.4244L16.646 100.04C14.9444 101.742 12.1272 101.571 10.788 99.5716C3.97411 89.3989 0 77.1635 0 64C0 28.6538 28.6538 0 64 0C77.1635 0 89.3989 3.97411 99.5716 10.788Z"
    />
  </g>
</svg>
