<svg fill="#9E9E9E" role="img" viewBox="0 0 32 32" xmlns="http://www.w3.org/2000/svg"><title>Scalekit</title><path d="M17.895 13.9219C15.008 13.0033 12.3922 12.5484 12.3922 10.7112C12.3922 8.60281 14.5443 8.00792 16.3815 8.09541C18.2187 8.13915 20.2833 9.05774 21.1932 10.7987L24.5438 7.99916C23.0303 5.38336 19.4085 3.86987 15.6029 3.86987C10.7387 3.91362 6.88937 6.30197 6.88937 10.7462C6.88937 15.4704 10.9224 16.8876 14.4043 18.0337C17.1601 18.9085 19.6272 19.5034 19.6272 21.3319C19.6272 23.1603 17.8862 23.9914 15.2704 23.9039C12.8821 23.7639 10.4588 22.5741 9.58391 20.6057L6.14575 23.589C7.79922 26.2923 11.5086 28.1294 15.9091 28.1294C21.0444 28.1732 25.2612 25.9248 25.2612 21.3406C25.2612 16.5289 21.3594 15.0592 17.8775 13.9131L17.895 13.9219Z"/></svg>
