<svg width="183" height="40" viewBox="0 0 183 40" fill="none" xmlns="http://www.w3.org/2000/svg">
<g clip-path="url(#clip0_443_429)">
<path d="M0 6C0 4.4087 0.632141 2.88258 1.75736 1.75736C2.88258 0.632141 4.4087 0 6 0L177 0C178.591 0 180.117 0.632141 181.243 1.75736C182.368 2.88258 183 4.4087 183 6V34C183 35.5913 182.368 37.1174 181.243 38.2426C180.117 39.3679 178.591 40 177 40H6C4.4087 40 2.88258 39.3679 1.75736 38.2426C0.632141 37.1174 0 35.5913 0 34L0 6Z" fill="url(#paint0_linear_443_429)"/>
<path d="M43.0457 17.8606C42.2967 17.3587 40.3293 17.1444 38.8991 17.5283C38.8224 16.1099 38.0871 14.9144 36.7432 13.8712L36.2459 13.5389L35.9143 14.0376C35.2626 15.0224 34.9879 16.335 35.085 17.5283C35.1618 18.2635 35.4184 19.0896 35.9143 19.6891C34.0527 20.7644 32.3364 20.5202 24.7364 20.5202H13.0026C12.9685 22.2289 13.2442 25.5152 15.3434 28.1906C15.5754 28.4863 15.8293 28.7721 16.1055 29.0474C17.8122 30.7489 20.391 31.9968 24.2468 32C30.1296 32.0054 35.1695 28.8394 38.2356 21.1853C39.2443 21.2016 41.9075 21.3653 43.211 18.8581C43.2428 18.816 43.5425 18.1934 43.5425 18.1934L43.0457 17.8611V17.8606ZM20.6603 16.2984H17.3608V19.5833H20.6603V16.2984ZM24.9226 16.2984H21.6231V19.5833H24.9226V16.2984ZM29.1854 16.2984H25.8859V19.5833H29.1854V16.2984ZM33.4482 16.2984H30.1487V19.5833H33.4482V16.2984ZM16.3975 16.2984H13.098V19.5833H16.3975V16.2984ZM20.6603 12.1494H17.3608V15.4344H20.6603V12.1494ZM24.9226 12.1494H21.6231V15.4344H24.9226V12.1494ZM29.1854 12.1494H25.8859V15.4344H29.1854V12.1494ZM29.1854 8H25.8859V11.2849H29.1854V8Z" fill="white"/>
<path d="M106.84 25.2433C106.84 25.9152 106.31 26.4426 105.621 26.4426C104.932 26.4426 104.395 25.9152 104.395 25.2433C104.395 24.5715 104.939 24.0586 105.621 24.0586C106.303 24.0586 106.84 24.5861 106.84 25.2433ZM104.7 25.2433C104.7 25.7708 105.091 26.1897 105.628 26.1897C106.165 26.1897 106.535 25.7708 106.535 25.2508C106.535 24.7308 106.151 24.297 105.622 24.297C105.093 24.297 104.7 24.7233 104.7 25.2433H104.7ZM105.433 25.8648H105.157V24.6801C105.265 24.6584 105.418 24.6439 105.614 24.6439C105.839 24.6439 105.94 24.6801 106.027 24.7308C106.093 24.7812 106.144 24.8752 106.144 24.9908C106.144 25.121 106.042 25.2221 105.897 25.2653V25.2799C106.013 25.3228 106.078 25.4097 106.115 25.5686C106.151 25.7492 106.172 25.8215 106.202 25.8648H105.905C105.868 25.8215 105.846 25.7134 105.81 25.5757C105.788 25.4459 105.716 25.3881 105.563 25.3881H105.433V25.8652V25.8648ZM105.44 25.193H105.57C105.722 25.193 105.846 25.1426 105.846 25.0199C105.846 24.9113 105.766 24.8386 105.592 24.8386C105.519 24.8386 105.468 24.8461 105.44 24.8539V25.193Z" fill="white"/>
<path d="M60.083 13.2529C59.9123 13.0869 59.7075 13.0024 59.462 13.0024C59.2165 13.0024 59.0056 13.0869 58.8413 13.2529C58.6767 13.4189 58.5962 13.6317 58.5962 13.8853V18.1207C57.7518 17.4258 56.7773 17.0753 55.6689 17.0753C54.3805 17.0753 53.2789 17.5386 52.366 18.4683C51.4532 19.3948 51 20.5157 51 21.8303C51 23.1449 51.4564 24.2626 52.366 25.1923C53.2789 26.1188 54.3777 26.5853 55.6689 26.5853C56.9601 26.5853 58.0468 26.122 58.9717 25.1923C59.8845 24.275 60.3377 23.1545 60.3377 21.8303V13.8853C60.3377 13.6317 60.254 13.4189 60.083 13.2529ZM58.3664 22.976V22.9824C58.2142 23.3425 58.0062 23.6585 57.7425 23.9277C57.4788 24.2002 57.1682 24.413 56.8144 24.5726C56.4574 24.7322 56.0786 24.8106 55.6721 24.8106C55.2655 24.8106 54.8775 24.7322 54.5205 24.5726C54.1635 24.413 53.8561 24.2002 53.5956 23.9309C53.3348 23.6617 53.1271 23.3456 52.9749 22.9856C52.8228 22.6224 52.7451 22.2375 52.7451 21.8303C52.7451 21.4231 52.8228 21.0382 52.9749 20.675C53.1271 20.3117 53.3352 19.9989 53.5956 19.7297C53.8564 19.4604 54.1667 19.2476 54.5205 19.088C54.8775 18.9283 55.2595 18.85 55.6721 18.85C56.0847 18.85 56.4574 18.9283 56.8144 19.088C57.1714 19.2476 57.4788 19.4604 57.7425 19.7328C58.0062 20.0053 58.2142 20.3213 58.3664 20.6782C58.5185 21.0382 58.5962 21.4202 58.5962 21.8271C58.5962 22.234 58.5185 22.6192 58.3664 22.976Z" fill="white"/>
<path d="M98.6568 20.0053C98.4302 19.4416 98.0849 18.9315 97.6321 18.4743L97.626 18.4711C96.7039 17.5446 95.6016 17.0781 94.3232 17.0781C93.0448 17.0781 91.9328 17.5414 91.02 18.4711C90.1071 19.3976 89.6543 20.5185 89.6543 21.8331C89.6543 23.1477 90.1107 24.2654 91.02 25.1951C91.9328 26.1216 93.032 26.5881 94.3232 26.5881C95.4961 26.5881 96.5112 26.2032 97.3745 25.4331C97.5416 25.2579 97.626 25.0451 97.626 24.7975C97.626 24.5499 97.5455 24.331 97.3805 24.165C97.2163 23.999 97.0082 23.9146 96.7599 23.9146C96.5429 23.921 96.3501 23.993 96.1859 24.137C95.9251 24.3622 95.6425 24.5346 95.3354 24.6474C95.0279 24.7602 94.6926 24.8166 94.3267 24.8166C94.0036 24.8166 93.6932 24.7666 93.3986 24.6634C93.1032 24.5602 92.8275 24.419 92.582 24.2345C92.3333 24.0497 92.1195 23.8309 91.9364 23.5709C91.7532 23.3141 91.6136 23.0292 91.5206 22.7164H98.1234C98.3682 22.7164 98.573 22.6319 98.7441 22.4659C98.9151 22.2999 98.9988 22.0871 98.9988 21.8335C98.9988 21.1762 98.8834 20.5657 98.6575 20.0053H98.6568ZM91.5138 20.9506C91.6039 20.6406 91.7404 20.3557 91.9235 20.0961C92.107 19.8392 92.324 19.6172 92.5723 19.4324C92.8239 19.2476 93.0968 19.1068 93.3979 19.0035C93.6986 18.9003 94.0057 18.8503 94.3232 18.8503C94.6406 18.8503 94.947 18.9003 95.2445 19.0035C95.5428 19.1068 95.8164 19.2476 96.0612 19.4324C96.3099 19.6172 96.5268 19.8361 96.71 20.0961C96.896 20.3529 97.0363 20.6377 97.1325 20.9506H91.5134H91.5138Z" fill="white"/>
<path d="M106.769 17.6737C106.614 17.5205 106.418 17.4013 106.182 17.3137C105.946 17.226 105.689 17.1665 105.406 17.132C105.127 17.0976 104.863 17.082 104.618 17.082C104.062 17.082 103.541 17.1728 103.05 17.3545C102.56 17.5361 102.107 17.7957 101.69 18.1338V17.9649C101.69 17.7209 101.607 17.5141 101.436 17.342C101.265 17.17 101.063 17.0824 100.825 17.0824C100.586 17.0824 100.374 17.17 100.204 17.342C100.033 17.5141 99.9492 17.7241 99.9492 17.9649V25.7066C99.9492 25.9507 100.033 26.1575 100.204 26.3295C100.374 26.5016 100.579 26.5892 100.825 26.5892C101.07 26.5892 101.268 26.5016 101.436 26.3295C101.607 26.1575 101.69 25.9475 101.69 25.7066V21.8342C101.69 21.4209 101.768 21.0329 101.92 20.6696C102.072 20.3064 102.28 19.9936 102.544 19.7243C102.808 19.4551 103.119 19.2423 103.472 19.0887C103.829 18.9322 104.208 18.8538 104.615 18.8538C105.022 18.8538 105.406 18.9259 105.758 19.0667C105.897 19.1295 106.018 19.1607 106.124 19.1607C106.245 19.1607 106.36 19.1387 106.465 19.0919C106.571 19.045 106.664 18.9823 106.742 18.901C106.819 18.8198 106.881 18.7258 106.928 18.6162C106.974 18.5098 106.999 18.3938 106.999 18.2686C106.999 18.0245 106.922 17.8273 106.767 17.6737H106.769H106.769Z" fill="white"/>
<path d="M70.3206 20.0086C70.094 19.4481 69.7555 18.9348 69.2995 18.4716C68.3778 17.5451 67.2757 17.0786 65.9966 17.0786C64.7175 17.0786 63.6066 17.5419 62.6938 18.4716C61.781 19.3981 61.3281 20.519 61.3281 21.8336C61.3281 23.1482 61.7845 24.2659 62.6938 25.1956C63.6066 26.1221 64.7054 26.5886 65.9966 26.5886C67.2879 26.5886 68.3745 26.1253 69.2995 25.1956C70.2123 24.2783 70.6655 23.1578 70.6655 21.8336C70.6591 21.1763 70.5444 20.569 70.321 20.0086H70.3206ZM68.6941 22.9761V22.9825C68.542 23.3426 68.3339 23.6586 68.0703 23.9279C67.8066 24.2003 67.4959 24.4131 67.1421 24.5727C66.7883 24.7323 66.4064 24.8107 65.9998 24.8107C65.5933 24.8107 65.2053 24.7323 64.8483 24.5727C64.4913 24.4131 64.1838 24.2003 63.9234 23.931C63.6626 23.6618 63.4548 23.3458 63.3027 22.9857C63.1506 22.6225 63.0729 22.2376 63.0729 21.8304C63.0729 21.4232 63.1506 21.0383 63.3027 20.6751C63.4548 20.3119 63.6629 19.999 63.9234 19.7298C64.1842 19.4605 64.4945 19.2477 64.8483 19.0881C65.2053 18.9285 65.5873 18.8501 65.9998 18.8501C66.4124 18.8501 66.7851 18.9285 67.1421 19.0881C67.4991 19.2477 67.8066 19.4605 68.0703 19.733C68.3339 20.0054 68.542 20.3214 68.6941 20.6783C68.8463 21.0383 68.924 21.4204 68.924 21.8272C68.924 22.2341 68.8463 22.6193 68.6941 22.9761Z" fill="white"/>
<path d="M88.9949 17.9614C88.9949 17.8426 88.97 17.7298 88.9237 17.6234C88.877 17.517 88.815 17.4201 88.7373 17.3385C88.6597 17.2573 88.5667 17.1913 88.4612 17.1477C88.3557 17.1041 88.241 17.0789 88.1199 17.0789C87.946 17.0789 87.7907 17.1229 87.6542 17.2137L82.6689 20.5165V13.8921C82.6689 13.6417 82.5852 13.432 82.4146 13.2597C82.2439 13.0876 82.0422 13 81.8032 13C81.5641 13 81.3531 13.0876 81.1821 13.2597C81.0115 13.4317 80.9277 13.6417 80.9277 13.8921V25.6939C80.9277 25.938 81.0115 26.148 81.1821 26.3232C81.3528 26.4984 81.5577 26.586 81.8032 26.586C82.0486 26.586 82.2471 26.4984 82.4146 26.3232C82.5852 26.148 82.6689 25.938 82.6689 25.6939V22.6292L83.6872 21.9499L87.5395 26.3544C87.6948 26.5076 87.8904 26.5828 88.1231 26.5828C88.2442 26.5828 88.359 26.5608 88.4644 26.514C88.5699 26.47 88.6632 26.4044 88.7405 26.3232C88.8182 26.242 88.8802 26.148 88.9269 26.0383C88.9736 25.9319 88.9981 25.8159 88.9981 25.7003C88.9981 25.4687 88.9176 25.2619 88.7559 25.0806L85.1705 20.9705L88.6625 18.6602C88.8859 18.507 88.9946 18.2722 88.9946 17.9558V17.9621L88.9949 17.9614Z" fill="white"/>
<path d="M74.2362 19.7241C74.5031 19.4548 74.8138 19.242 75.1708 19.0884C75.5278 18.932 75.9065 18.8536 76.313 18.8536C76.6793 18.8536 77.0178 18.9164 77.3313 19.0412C77.6417 19.1664 77.9399 19.3512 78.2221 19.5921C78.3895 19.7265 78.5791 19.7954 78.79 19.7954C79.0415 19.7954 79.2464 19.7109 79.411 19.5417C79.5756 19.3725 79.6562 19.1597 79.6562 18.9061C79.6562 18.6525 79.5567 18.4176 79.3551 18.2364C78.4982 17.4663 77.4835 17.0811 76.313 17.0811C75.0247 17.0811 73.923 17.5443 73.0102 18.474C72.0974 19.4006 71.6445 20.5215 71.6445 21.836C71.6445 23.1506 72.1009 24.2683 73.0102 25.1981C73.923 26.1246 75.0218 26.591 76.313 26.591C77.4803 26.591 78.4953 26.2062 79.3551 25.4357C79.5382 25.2481 79.6316 25.032 79.6316 24.7816C79.6316 24.5312 79.5507 24.3152 79.3864 24.1492C79.2218 23.9831 79.0141 23.8987 78.7658 23.8987C78.5548 23.9051 78.3714 23.9675 78.2164 24.0864C77.937 24.3304 77.6452 24.512 77.3317 24.6341C77.0214 24.7561 76.6829 24.8157 76.3134 24.8157C75.9069 24.8157 75.5281 24.7373 75.1711 24.5808C74.8141 24.4244 74.5038 24.2116 74.2366 23.9455C73.9697 23.6795 73.7584 23.3603 73.6063 23.0002C73.4541 22.637 73.3765 22.2489 73.3765 21.8357C73.3765 21.4224 73.4541 21.0344 73.6063 20.6711C73.7584 20.3079 73.9693 19.9951 74.2366 19.7258V19.7226L74.2362 19.7241Z" fill="white"/>
</g>
<defs>
<linearGradient id="paint0_linear_443_429" x1="181" y1="6.69087e-06" x2="26" y2="37.5" gradientUnits="userSpaceOnUse">
<stop stop-color="#8EB1F6"/>
<stop offset="0.0961538" stop-color="#8EB1F6"/>
<stop offset="1" stop-color="#1D63ED"/>
</linearGradient>
<clipPath id="clip0_443_429">
<rect width="183" height="40" fill="white"/>
</clipPath>
</defs>
</svg>
